<?xml version="1.0" encoding="utf-8"?>
<!-- Generator: Adobe Illustrator 26.0.2, SVG Export Plug-In . SVG Version: 6.00 Build 0)  -->
<svg version="1.1" id="Layer_1" xmlns="http://www.w3.org/2000/svg" xmlns:xlink="http://www.w3.org/1999/xlink" x="0px" y="0px"
	 viewBox="0 0 224.7 261.1" style="enable-background:new 0 0 224.7 261.1;" xml:space="preserve">
<style type="text/css">
	.st0{fill:url(#SVGID_1_);}
	.st1{fill:url(#SVGID_00000150101479691314377580000015935272323893459597_);}
	.st2{fill:url(#SVGID_00000014615947752801627300000012947291385689054089_);}
	.st3{fill-rule:evenodd;clip-rule:evenodd;fill:#044C93;}
	.st4{fill-rule:evenodd;clip-rule:evenodd;fill:#FFFFFF;}
</style>
<g>
	<linearGradient id="SVGID_1_" gradientUnits="userSpaceOnUse" x1="111.7394" y1="116.848" x2="80.0944" y2="82.6745">
		<stop  offset="0.2505" style="stop-color:#004E92"/>
		<stop  offset="0.7591" style="stop-color:#1F96FF"/>
	</linearGradient>
	<path class="st0" d="M111.5,114.5L111.5,114.5c-1.2,1-4.4,3.4-8.9,3.7c-3.8,0.2-6.6-1-8.5-2C85.1,111,81.8,103,81.8,103l0,0
		c0,0-2.6-5.2-7-10.1c-4.4-4.8-6.8-5.2-6.8-5.2c0,0,0,0,0,0c0.4,0.1,1.3-0.5,1.7-0.7c1-0.4,1.9-0.7,2.9-1c2.8-0.8,5.7-1.4,8.6-1.8
		c8.8-0.9,17.6,1.2,24.7,6.6c1.9,1.5,4.8,3.7,6.8,7.6c0.9,1.8,3.2,6.3,1.6,11.3C113.6,112,112.4,113.6,111.5,114.5z"/>
	<g>
		
			<linearGradient id="SVGID_00000085241893610481180710000006972979997416611983_" gradientUnits="userSpaceOnUse" x1="0.309" y1="94.5996" x2="209.0068" y2="94.5996">
			<stop  offset="9.133510e-02" style="stop-color:#002050"/>
			<stop  offset="0.3822" style="stop-color:#004E92"/>
			<stop  offset="0.7591" style="stop-color:#1F96FF"/>
		</linearGradient>
		<path style="fill:url(#SVGID_00000085241893610481180710000006972979997416611983_);" d="M80.9,179.2c-2.3,0-5.6,0-10.4,0
			c-6.7,0-15.6-0.1-18.8-0.2c-0.7,0-3.8-0.1-6.9-0.5c-12.2-1.6-23.5-7.6-31.7-16.8c-8.3-9.3-12.8-21.2-12.8-33.5
			c0-12.8,4.9-25.1,13.7-34.5c7.6-8.1,17.5-13.4,28.3-15.4c0.1,0,0.1-0.1,0.1-0.1C46.9,67,54.5,57,64.3,49.7
			c11.6-8.6,25.4-13.2,39.9-13.2c17.5,0,33.6,6.8,45.5,17.9c0.1,0.1,0.2,0.1,0.2,0c2.1-1.8,4.2-3.9,6.1-6.5c6-7.9,9.4-18.1,10-30.5
			c0.2-4,3.5-7.1,7.5-7.2l0,0l7.9-0.2c0.1,0,0.2,0.1,0.2,0.2c0.4,19.1-4,34.9-13.3,46.9c-2.8,3.6-5.7,6.6-8.6,9
			c-0.1,0.1-0.1,0.1,0,0.2c4.1,6.3,7.2,13.4,8.9,21c0,0.1,0.1,0.1,0.1,0.1c28,3.8,48.1,32.2,37.1,62.2c-0.3,0.8-0.6,1.6-1,2.4
			c-8.4,17-24.7,26.8-42.5,26.8h-11.1c-8.6,0-15.5-6.8-15.5-15.3v0c0,0,0,0,0,0h26.6c20.3-0.1,36.2-19.5,29.4-40.5
			c-4-12.6-16.3-20.8-29.7-20.8h0l-6.9,0.2c-0.1,0-0.2-0.1-0.2-0.2l-0.8-6.7c-0.9-7.5-3.5-14.4-7.3-20.5c-0.1-0.1-0.2-0.1-0.3-0.1
			c-6.9,4.3-12.9,8.2-17.7,16.9c-3,5.3-4.4,12.3-7.4,26.2c-1.5,7.2-2.3,12.7-3,17.6c-1.4,10.1-2.4,17.5-8.6,26.5
			c-6.7,9.7-14.6,15.3-23.5,16.8C86.2,179.1,85.9,179.2,80.9,179.2z M104.2,51.8c-22.3,0-42.2,14.7-48.5,35.7l-1.5,4.9
			c0,0.1-0.1,0.1-0.2,0.1l-5.2,0.4c-18.5,1.5-33.1,17-33.1,35.3c0,17.7,13.4,32.8,31.1,35.1c2.3,0.3,4.9,0.3,4.9,0.3l0.2,0
			c5.7,0.2,28.8,0.3,32.5,0.2c0,0,0,0,0,0c4.4-0.9,8.7-4.3,12.7-10.2c4.2-6,4.8-10.7,6.1-19.9c0.7-4.9,1.5-11,3.1-18.6
			c3.2-15.4,4.9-23.1,8.9-30.4c6.1-11,13.8-16.6,20.9-21.2c0.1-0.1,0.1-0.2,0-0.3C127.7,56,116.4,51.8,104.2,51.8z"/>
	</g>
	
		<linearGradient id="SVGID_00000065753677325980273490000009460574888306775428_" gradientUnits="userSpaceOnUse" x1="213.7204" y1="21.1393" x2="170.3767" y2="48.5162">
		<stop  offset="0.2505" style="stop-color:#004E92"/>
		<stop  offset="0.7591" style="stop-color:#1F96FF"/>
	</linearGradient>
	<path style="fill:url(#SVGID_00000065753677325980273490000009460574888306775428_);" d="M174.2,40.6L174.2,40.6
		c0.7,1.4,2.7,4.8,6.8,6.7c3.4,1.6,6.5,1.6,8.7,1.3c10.4-1.3,16.5-7.5,16.5-7.5l0,0c0,0,4.4-3.9,10.3-6.7c5.9-2.8,8.3-2.2,8.3-2.2
		c0,0,0,0,0,0c-0.4-0.1-1-1-1.3-1.3c-0.8-0.7-1.5-1.4-2.3-2c-2.3-1.8-4.7-3.5-7.3-4.8c-7.8-4.2-16.8-5.4-25.4-3.1
		c-2.4,0.6-5.8,1.6-9.2,4.5c-1.5,1.3-5.4,4.6-5.8,9.8C173.2,37.5,173.7,39.4,174.2,40.6z"/>
</g>
<path class="st3" d="M145.3,182.6c-5.7,1.4-6.3,9-0.8,11.2c4.8,1.9,9.9-1,9.9-5.6C154.4,184,150.2,181.4,145.3,182.6"/>
<polyline class="st3" points="106.1,207.5 106.1,229.2 111.7,229.2 117.4,229.2 117.4,207.5 117.4,185.9 111.7,185.9 106.1,185.9 
	106.1,207.5 "/>
<polyline class="st3" points="124,207.5 124,229.2 129.7,229.2 135.4,229.2 135.4,207.5 135.4,185.9 129.7,185.9 124,185.9 
	124,207.5 "/>
<path class="st3" d="M19,194.6v4.1h-2.3h-2.3v4.2v4.2h2.3H19l0.1,6.5c0.1,6,0.1,6.6,0.4,7.9c1.1,4,3.6,6.4,7.8,7.6
	c3.5,1,12.7,0,12.7-1.3c0-0.1-2.7-7.7-2.7-7.8c0,0-0.4,0.2-0.9,0.4c-1.3,0.7-3.5,0.7-4.4,0c-1.3-0.9-1.4-1.1-1.4-7.6v-5.7h3.7h3.7
	V203v-4.2h-3.7h-3.7v-4.1v-4.1h-5.7H19V194.6"/>
<path class="st3" d="M62.3,197.2c-2.8,0.4-5.2,1.5-6.8,2.9l-1,0.9v-1.8v-1.8h-5.4h-5.4v15.8v15.8h5.7H55l0-7.9
	c0-9.7,0.1-10.3,1.9-12.2c1.4-1.5,3.4-2.1,6.4-2l1.9,0.1v-5v-5l-1,0C63.7,197.1,62.8,197.2,62.3,197.2"/>
<path class="st3" d="M82.3,197.2c-4.9,0.6-9.4,3.3-12,7.1c-4.9,7-2.9,17.5,4,22.1c7.3,4.8,18.8,4.5,24.8-0.7
	c1.3-1.1,1.4-0.7-1.9-4.3l-2.9-3.1l-0.9,0.6c-4,3-10.2,2.8-12.9-0.3c-0.5-0.6-1.3-2.1-1.3-2.4c0-0.1,3.7-0.2,11.6-0.2h11.6l0.1-0.6
	c0.2-1.2,0-5.4-0.4-6.8C99.8,200.7,91.8,196,82.3,197.2"/>
<path class="st3" d="M169.6,197.3c-8,1.1-12.5,5.7-11.7,11.7c0.7,5.2,3.5,7,13.8,8.5c3.8,0.6,4.8,0.9,5,1.9
	c0.7,2.9-8.4,2.9-14.4,0.1c-0.9-0.4-1.7-0.7-1.7-0.7c-0.1,0.1-3,6.5-3.3,7.3c-0.5,1.4,7.9,3.5,14.1,3.5c10.1,0,15.9-3.8,15.9-10.5
	c0-5.7-2.8-7.9-12-9.5c-5.5-0.9-6.3-1.2-6.7-2.1c-1.1-2.9,6.9-3.5,12.7-0.9c0.8,0.4,1.5,0.6,1.6,0.6c0.1-0.1,3.4-7.5,3.4-7.6
	c0-0.2-2.3-1.1-3.6-1.5C179,197.2,173.2,196.8,169.6,197.3"/>
<polyline class="st3" points="141.9,213.4 141.9,229.2 147.5,229.2 153.2,229.2 153.2,213.4 153.2,197.6 147.5,197.6 141.9,197.6 
	141.9,213.4 "/>
<path class="st4" d="M88.2,205.7c1.7,0.8,3.1,2.5,3.5,4.2l0.1,0.5h-6.4c-7.2,0-6.7,0.1-6.1-1.4C80.5,205.7,84.8,204.1,88.2,205.7"/>
</svg>
