<?xml version="1.0" encoding="utf-8"?>
<!-- Generator: Adobe Illustrator 26.0.2, SVG Export Plug-In . SVG Version: 6.00 Build 0)  -->
<svg version="1.1" id="svg" xmlns="http://www.w3.org/2000/svg" xmlns:xlink="http://www.w3.org/1999/xlink" x="0px" y="0px"
	 viewBox="0 0 400 426.8" style="enable-background:new 0 0 400 426.8;" xml:space="preserve">
<style type="text/css">
	.st0{fill-rule:evenodd;clip-rule:evenodd;fill:#044C93;}
	.st1{fill:url(#SVGID_1_);}
	.st2{fill:url(#SVGID_00000005954953039839245560000001385496562243638170_);}
	.st3{fill:url(#SVGID_00000070105621343969726730000011122095240498629809_);}
</style>
<path id="path0" class="st0" d="M259.1,309.8c-9.5,2.2-10.4,15-1.3,18.5c8,3.1,16.4-1.6,16.4-9.3
	C274.2,312.1,267.2,307.8,259.1,309.8 M194.1,351.1V387h9.4h9.4v-35.8v-35.8h-9.4h-9.4V351.1 M223.9,351.1V387h9.4h9.4v-35.8v-35.8
	h-9.4h-9.4V351.1 M49.9,329.7v6.8H46h-3.9v7v7H46h3.8l0.1,10.8c0.1,10,0.2,11,0.7,13c1.8,6.6,5.9,10.6,12.9,12.6
	c5.8,1.7,21,0.1,21.1-2.2c0-0.2-4.4-12.7-4.5-12.9c0,0-0.7,0.3-1.5,0.7c-2.2,1.1-5.7,1.1-7.4,0c-2.2-1.5-2.3-1.8-2.3-12.6v-9.4H75
	H81v-7v-7H75h-6.1v-6.8V323h-9.5h-9.5V329.7 M121.5,334c-4.6,0.7-8.6,2.4-11.2,4.8l-1.7,1.5v-2.9v-2.9h-9h-9v26.2V387h9.4h9.4l0-13
	c0-16,0.2-17.1,3.1-20.2c2.3-2.5,5.6-3.5,10.6-3.4l3.1,0.1v-8.3v-8.3l-1.6,0C123.8,333.8,122.4,333.9,121.5,334 M154.7,334
	c-8.2,1.1-15.5,5.4-19.9,11.7c-8,11.6-4.9,29,6.6,36.6c12.1,7.9,31.2,7.4,41.1-1.2c2.1-1.8,2.4-1.2-3.2-7.1l-4.8-5.1l-1.4,1.1
	c-6.6,4.9-16.9,4.7-21.4-0.4c-0.8-0.9-2.2-3.4-2.2-4c0-0.2,6.2-0.3,19.2-0.3h19.2l0.2-1c0.4-1.9-0.1-8.9-0.7-11.3
	C183.7,339.8,170.4,332,154.7,334 M299.4,334.1c-13.2,1.9-20.7,9.5-19.3,19.4c1.2,8.7,5.9,11.6,22.8,14.1c6.2,0.9,7.9,1.6,8.3,3.2
	c1.2,4.8-14,4.9-23.9,0.2c-1.5-0.7-2.8-1.2-2.9-1.2c-0.1,0.1-4.9,10.8-5.4,12c-0.9,2.3,13.2,5.8,23.3,5.9c16.8,0,26.4-6.3,26.4-17.4
	c0-9.5-4.7-13.1-19.9-15.7c-9-1.5-10.5-2-11-3.5c-1.8-4.8,11.5-5.8,21-1.5c1.4,0.6,2.5,1.1,2.6,1c0.1-0.1,5.6-12.4,5.6-12.5
	c0-0.3-3.8-1.8-6-2.4C314.9,334,305.3,333.3,299.4,334.1 M253.4,360.8V387h9.4h9.4v-26.2v-26.2h-9.4h-9.4V360.8 M164.5,348
	c2.8,1.3,5.1,4.1,5.8,7l0.2,0.8h-10.6c-12,0-11,0.2-10.1-2.3C151.8,348,158.9,345.4,164.5,348"/>
<g>
	<linearGradient id="SVGID_1_" gradientUnits="userSpaceOnUse" x1="197.8874" y1="195.0593" x2="142.292" y2="135.0216">
		<stop  offset="0.2505" style="stop-color:#004E92"/>
		<stop  offset="0.7591" style="stop-color:#1F96FF"/>
	</linearGradient>
	<path class="st1" d="M197.5,190.9L197.5,190.9c-2.1,1.8-7.7,5.9-15.6,6.5c-6.6,0.4-11.6-1.7-15-3.6c-15.9-9-21.7-23-21.7-23l0,0
		c0,0-4.5-9.2-12.2-17.7c-7.7-8.5-12-9.1-12-9.1c0,0,0,0,0,0c0.7,0.1,2.4-0.9,3-1.2c1.7-0.6,3.4-1.2,5.2-1.7
		c4.9-1.5,10-2.5,15.1-3.1c15.5-1.7,30.9,2.2,43.3,11.6c3.4,2.6,8.4,6.4,11.9,13.3c1.6,3.2,5.6,11,2.8,19.8
		C201.2,186.6,199.1,189.3,197.5,190.9z"/>
	<g>
		
			<linearGradient id="SVGID_00000156573993365243293850000012712014182391760522_" gradientUnits="userSpaceOnUse" x1="2.1212" y1="155.9722" x2="368.7712" y2="155.9722">
			<stop  offset="9.133510e-02" style="stop-color:#002050"/>
			<stop  offset="0.3822" style="stop-color:#004E92"/>
			<stop  offset="0.7591" style="stop-color:#1F96FF"/>
		</linearGradient>
		<path style="fill:url(#SVGID_00000156573993365243293850000012712014182391760522_);" d="M143.8,304.6c-4.1,0-9.9,0-18.3-0.1
			c-11.8-0.1-27.4-0.2-33.1-0.4c-1.2,0-6.7-0.1-12-0.8c-21.5-2.9-41.3-13.3-55.7-29.5C10.1,257.6,2.1,236.7,2.1,215
			c0-22.5,8.6-44.1,24.1-60.6C39.6,140.3,57,130.9,76,127.4c0.1,0,0.2-0.1,0.2-0.2c7.7-19.7,21.1-37.3,38.3-50.1
			c20.3-15.2,44.6-23.2,70.1-23.2c30.8,0,59,11.9,80,31.4c0.1,0.1,0.3,0.1,0.4,0c3.8-3.2,7.4-6.9,10.8-11.3
			c10.6-13.8,16.5-31.8,17.6-53.7c0.4-7,6.1-12.5,13.2-12.6l0,0l13.9-0.3c0.2,0,0.3,0.1,0.3,0.3c0.7,33.5-7.1,61.3-23.3,82.5
			c-4.9,6.4-10,11.5-15.2,15.9c-0.1,0.1-0.1,0.3-0.1,0.4c7.2,11.1,12.6,23.6,15.6,36.9c0,0.1,0.1,0.2,0.3,0.2
			c49.2,6.7,84.5,56.6,65.3,109.4c-0.5,1.4-1.1,2.8-1.8,4.1c-14.8,29.8-43.3,47-74.6,47.1h-19.6c-15.1,0-27.3-12-27.3-26.8v0
			c0,0,0,0,0,0H287c35.7-0.1,63.5-34.2,51.7-71.1c-7.1-22.1-28.6-36.6-52.1-36.5h0l-12.1,0.3c-0.2,0-0.3-0.1-0.3-0.3l-1.4-11.8
			c-1.6-13.1-6.1-25.3-12.8-35.9c-0.1-0.2-0.3-0.2-0.5-0.1c-12.1,7.5-22.6,14.4-31.1,29.6c-5.2,9.4-7.8,21.6-12.9,46
			c-2.7,12.6-4,22.3-5.2,31c-2.5,17.8-4.3,30.7-15.2,46.5c-11.7,17-25.6,26.9-41.2,29.5C153,304.5,152.4,304.6,143.8,304.6z
			 M184.6,80.7c-39.1,0-74.1,25.8-85.2,62.7l-2.6,8.6c0,0.1-0.1,0.2-0.3,0.2l-9.1,0.7c-32.6,2.6-58.1,29.9-58.1,62.1
			c0,31,23.5,57.5,54.6,61.7c4,0.5,8.6,0.6,8.7,0.6l0.3,0c9.9,0.3,50.6,0.5,57.2,0.4c0,0,0,0,0.1,0c7.7-1.6,15.2-7.6,22.3-17.9
			c7.3-10.6,8.5-18.8,10.7-35c1.2-8.6,2.7-19.3,5.5-32.8c5.7-27,8.5-40.6,15.7-53.4c10.7-19.3,24.2-29.2,36.8-37.2
			c0.2-0.1,0.2-0.4,0-0.5C225.9,88.2,206,80.7,184.6,80.7z"/>
	</g>
	
		<linearGradient id="SVGID_00000118359334855246837830000014237319749001141152_" gradientUnits="userSpaceOnUse" x1="377.0523" y1="26.9138" x2="300.904" y2="75.0108">
		<stop  offset="0.2505" style="stop-color:#004E92"/>
		<stop  offset="0.7591" style="stop-color:#1F96FF"/>
	</linearGradient>
	<path style="fill:url(#SVGID_00000118359334855246837830000014237319749001141152_);" d="M307.5,61L307.5,61
		c1.3,2.5,4.8,8.4,12,11.8c6,2.9,11.4,2.8,15.2,2.3c18.2-2.4,28.9-13.2,28.9-13.2l0,0c0,0,7.7-6.8,18.1-11.8
		c10.4-5,14.6-3.9,14.6-3.9c0,0,0,0,0,0c-0.7-0.2-1.8-1.8-2.3-2.2c-1.3-1.2-2.7-2.4-4.1-3.5c-4-3.2-8.3-6.1-12.8-8.5
		c-13.7-7.3-29.5-9.5-44.6-5.4c-4.1,1.1-10.2,2.8-16.1,7.9c-2.7,2.3-9.4,8.1-10.2,17.3C305.8,55.6,306.8,59,307.5,61z"/>
</g>
</svg>
