<?xml version="1.0" encoding="utf-8"?>
<!-- Generator: Adobe Illustrator 26.0.2, SVG Export Plug-In . SVG Version: 6.00 Build 0)  -->
<svg version="1.1" id="Layer_1" xmlns="http://www.w3.org/2000/svg" xmlns:xlink="http://www.w3.org/1999/xlink" x="0px" y="0px"
	 viewBox="0 0 352.1 122.3" style="enable-background:new 0 0 352.1 122.3;" xml:space="preserve">
<style type="text/css">
	.st0{fill:url(#SVGID_1_);}
	.st1{fill:url(#SVGID_00000038413901534548100850000017457586800473014947_);}
	.st2{fill:url(#SVGID_00000052070234076242956030000010551617508977974180_);}
	.st3{fill:#004E92;}
</style>
<g>
	<linearGradient id="SVGID_1_" gradientUnits="userSpaceOnUse" x1="79.414" y1="77.1638" x2="56.7442" y2="52.6825">
		<stop  offset="0.2505" style="stop-color:#004E92"/>
		<stop  offset="0.7591" style="stop-color:#1F96FF"/>
	</linearGradient>
	<path class="st0" d="M79.2,75.5L79.2,75.5c-0.9,0.7-3.1,2.4-6.3,2.7c-2.7,0.2-4.7-0.7-6.1-1.5C60.4,73,58,67.3,58,67.3l0,0
		c0,0-1.8-3.8-5-7.3c-3.1-3.5-4.9-3.7-4.9-3.7c0,0,0,0,0,0c0.3,0,1-0.4,1.2-0.5c0.7-0.3,1.4-0.5,2.1-0.7c2-0.6,4.1-1,6.1-1.3
		c6.3-0.7,12.5,0.9,17.6,4.8c1.4,1.1,3.4,2.6,4.8,5.5c0.7,1.3,2.3,4.5,1.1,8.1C80.7,73.7,79.8,74.9,79.2,75.5z"/>
	<g>
		
			<linearGradient id="SVGID_00000121260559401935572660000011444681190327042231_" gradientUnits="userSpaceOnUse" x1="0" y1="61.1606" x2="148.5999" y2="61.1606">
			<stop  offset="9.133510e-02" style="stop-color:#002050"/>
			<stop  offset="0.3822" style="stop-color:#004E92"/>
			<stop  offset="0.7591" style="stop-color:#1F96FF"/>
		</linearGradient>
		<path style="fill:url(#SVGID_00000121260559401935572660000011444681190327042231_);" d="M57.4,122.3c-1.6,0-4,0-7.4,0
			c-4.8,0-11.1-0.1-13.4-0.1c-0.5,0-2.7,0-4.9-0.3c-8.7-1.2-16.7-5.5-22.6-12.1C3.2,103,0,94.4,0,85.5c0-9.3,3.5-18.1,9.8-24.9
			c5.4-5.8,12.5-9.7,20.2-11.1c0,0,0.1,0,0.1-0.1c3.1-8.1,8.5-15.3,15.5-20.6c8.2-6.2,18.1-9.5,28.4-9.5c12.5,0,23.9,4.9,32.4,12.9
			c0,0,0.1,0,0.2,0c1.5-1.3,3-2.8,4.4-4.7c4.3-5.7,6.7-13.1,7.2-22.1c0.2-2.9,2.5-5.1,5.3-5.2l0,0L129,0c0.1,0,0.1,0.1,0.1,0.1
			c0.3,13.8-2.9,25.2-9.4,33.9c-2,2.6-4.1,4.7-6.2,6.5c0,0-0.1,0.1,0,0.2c2.9,4.6,5.1,9.7,6.3,15.2c0,0.1,0.1,0.1,0.1,0.1
			c19.9,2.8,34.2,23.3,26.4,45c-0.2,0.6-0.4,1.1-0.7,1.7c-6,12.3-17.6,19.3-30.2,19.4h-7.9c-6.1,0-11-4.9-11-11v0c0,0,0,0,0,0h19
			c14.5,0,25.8-14.1,21-29.3c-2.9-9.1-11.6-15.1-21.1-15h0l-4.9,0.1c-0.1,0-0.1,0-0.1-0.1l-0.6-4.9c-0.6-5.4-2.5-10.4-5.2-14.8
			c0-0.1-0.1-0.1-0.2,0c-4.9,3.1-9.2,5.9-12.6,12.2c-2.1,3.9-3.2,8.9-5.2,18.9c-1.1,5.2-1.6,9.2-2.1,12.7c-1,7.3-1.7,12.6-6.2,19.1
			c-4.8,7-10.4,11.1-16.7,12.1C61.2,122.3,60.9,122.3,57.4,122.3z M74,30.2c-15.8,0-30,10.6-34.5,25.8l-1,3.6c0,0.1-0.1,0.1-0.1,0.1
			l-3.7,0.3C21.4,61,11,72.2,11,85.5c0,12.8,9.5,23.7,22.1,25.4c1.6,0.2,3.5,0.2,3.5,0.2l0.1,0c4,0.1,20.5,0.2,23.2,0.2c0,0,0,0,0,0
			c3.1-0.6,6.2-3.1,9.1-7.4c3-4.4,3.4-7.7,4.3-14.4c0.5-3.5,1.1-7.9,2.2-13.5C78,64.9,79.1,59.3,82,54c4.3-7.9,9.8-12,14.9-15.3
			c0.1,0,0.1-0.2,0-0.2C90.7,33.3,82.6,30.2,74,30.2z"/>
	</g>
	
		<linearGradient id="SVGID_00000031195762527707730590000009953685194577000375_" gradientUnits="userSpaceOnUse" x1="151.932" y1="8.1418" x2="121.0181" y2="27.6677">
		<stop  offset="0.2505" style="stop-color:#004E92"/>
		<stop  offset="0.7591" style="stop-color:#1F96FF"/>
	</linearGradient>
	<path style="fill:url(#SVGID_00000031195762527707730590000009953685194577000375_);" d="M123.8,22.1L123.8,22.1
		c0.5,1,1.9,3.4,4.8,4.9c2.4,1.2,4.6,1.1,6.2,0.9c7.4-1,11.7-5.4,11.7-5.4l0,0c0,0,3.1-2.8,7.3-4.9c4.2-2.1,5.9-1.6,5.9-1.6
		c0,0,0,0,0,0c-0.3-0.1-0.7-0.7-0.9-0.9c-0.5-0.5-1.1-1-1.7-1.4c-1.6-1.3-3.4-2.5-5.2-3.5c-5.6-3-11.9-3.9-18.1-2.2
		c-1.7,0.5-4.2,1.2-6.5,3.2c-1.1,1-3.8,3.3-4.1,7.1C123.1,19.9,123.5,21.2,123.8,22.1z"/>
</g>
<g>
	<path class="st3" d="M184.5,95.7c-1.1,0.7-2.4,1.2-3.9,1.5c-1.5,0.4-3.2,0.5-4.9,0.5c-4.7,0-8.4-1.2-10.9-3.5
		c-2.6-2.3-3.8-5.8-3.8-10.4V71.7h-5.3v-9.5h5.3v-9.5h12.8v9.5h8.3v9.5h-8.3v12.1c0,1.3,0.3,2.3,1,3.1c0.7,0.7,1.6,1.1,2.8,1.1
		c1.5,0,2.8-0.4,3.9-1.1L184.5,95.7z"/>
	<path class="st3" d="M206,61.4c2.1-0.8,4.5-1.2,7.2-1.2v11.5c-1.2-0.1-2.1-0.2-2.9-0.2c-2.7,0-4.9,0.7-6.4,2.2
		c-1.5,1.5-2.3,3.7-2.3,6.8v16.7h-12.8V60.8h12.2v4.4C202.2,63.5,203.9,62.3,206,61.4z"/>
	<path class="st3" d="M254.4,82.2h-26.5c0.5,1.9,1.6,3.3,3.1,4.3c1.5,1,3.5,1.5,5.8,1.5c1.7,0,3.3-0.2,4.5-0.7
		c1.3-0.5,2.6-1.3,3.9-2.4l6.7,7c-3.5,3.9-8.7,5.9-15.5,5.9c-4.3,0-8-0.8-11.2-2.4c-3.2-1.6-5.7-3.9-7.5-6.7
		c-1.8-2.9-2.7-6.1-2.7-9.7c0-3.6,0.9-6.8,2.6-9.6c1.7-2.8,4.1-5.1,7.2-6.7c3-1.6,6.5-2.4,10.3-2.4c3.6,0,6.9,0.8,9.9,2.3
		c3,1.5,5.3,3.7,7,6.5c1.7,2.8,2.6,6.2,2.6,10.1C254.6,79.2,254.5,80.2,254.4,82.2z M230.2,70.9c-1.3,1.1-2.2,2.6-2.5,4.6h14.9
		c-0.4-1.9-1.2-3.4-2.5-4.6c-1.3-1.1-3-1.7-4.9-1.7C233.2,69.3,231.6,69.8,230.2,70.9z"/>
	<path class="st3" d="M259.8,47.4h12.8v49.8h-12.8V47.4z"/>
	<path class="st3" d="M280.2,47.4h12.8v49.8h-12.8V47.4z"/>
	<path class="st3" d="M301.3,54.8c-1.4-1.3-2.1-2.9-2.1-4.8c0-1.9,0.7-3.5,2.1-4.8c1.4-1.3,3.3-1.9,5.6-1.9c2.3,0,4.2,0.6,5.6,1.8
		c1.4,1.2,2.1,2.8,2.1,4.7c0,2-0.7,3.7-2.1,5c-1.4,1.3-3.3,2-5.6,2C304.6,56.8,302.7,56.1,301.3,54.8z M300.5,60.8h12.8v36.4h-12.8
		V60.8z"/>
	<path class="st3" d="M325.1,96.8c-3-0.7-5.3-1.6-7.1-2.7l3.8-8.7c1.7,1,3.6,1.8,5.9,2.5c2.3,0.6,4.5,0.9,6.8,0.9
		c2.1,0,3.5-0.2,4.4-0.6c0.9-0.4,1.3-1,1.3-1.8c0-0.8-0.5-1.4-1.6-1.7c-1.1-0.3-2.7-0.7-5-1c-2.9-0.4-5.4-0.8-7.4-1.4
		c-2-0.6-3.8-1.7-5.3-3.2c-1.5-1.6-2.2-3.8-2.2-6.6c0-2.3,0.7-4.4,2.1-6.2c1.4-1.8,3.4-3.2,6.1-4.3c2.7-1.1,5.9-1.6,9.6-1.6
		c2.6,0,5.3,0.3,7.9,0.8c2.6,0.5,4.8,1.3,6.5,2.3L347,72c-3.2-1.8-6.7-2.7-10.5-2.7c-2,0-3.5,0.2-4.4,0.7c-0.9,0.5-1.4,1.1-1.4,1.8
		c0,0.9,0.5,1.4,1.5,1.8c1,0.3,2.7,0.7,5.1,1c3,0.4,5.5,1,7.5,1.5c2,0.6,3.7,1.6,5.1,3.2c1.5,1.5,2.2,3.7,2.2,6.5
		c0,2.3-0.7,4.3-2.1,6.1c-1.4,1.8-3.4,3.2-6.1,4.3c-2.7,1-6,1.5-9.8,1.5C331.1,97.8,328.1,97.5,325.1,96.8z"/>
</g>
</svg>
