<?xml version="1.0" encoding="utf-8"?>
<!-- Generator: Adobe Illustrator 26.0.2, SVG Export Plug-In . SVG Version: 6.00 Build 0)  -->
<svg version="1.1" id="Layer_1" xmlns="http://www.w3.org/2000/svg" xmlns:xlink="http://www.w3.org/1999/xlink" x="0px" y="0px"
	 viewBox="0 0 224.7 261.1" style="enable-background:new 0 0 224.7 261.1;" xml:space="preserve">
<style type="text/css">
	.st0{fill:#054F91;}
	.st1{fill:#004E92;}
</style>
<g>
	<path class="st0" d="M113.5,109.5L113.5,109.5c-1.1,1-4.1,3.2-8.3,3.5c-3.5,0.2-6.2-0.9-8-1.9c-8.5-4.9-11.6-12.5-11.6-12.5l0,0
		c0,0-2.4-5-6.5-9.6c-4.1-4.6-6.4-4.9-6.4-4.9c0,0,0,0,0,0c0.4,0,1.3-0.5,1.6-0.6c0.9-0.3,1.8-0.7,2.8-0.9c2.6-0.8,5.3-1.4,8.1-1.7
		c8.3-0.9,16.5,1.2,23.1,6.3c1.8,1.4,4.5,3.5,6.4,7.2c0.9,1.7,3,6,1.5,10.7C115.5,107.2,114.3,108.7,113.5,109.5z"/>
	<g>
		<path class="st0" d="M84.8,171.2c-2.2,0-5.3,0-9.8,0c-6.3,0-14.6-0.1-17.7-0.2c-0.6,0-3.6-0.1-6.4-0.4c-11.5-1.6-22-7.2-29.7-16
			c-7.8-8.8-12-20.2-12-31.9c0-12.2,4.6-23.9,12.9-32.8c7.1-7.7,16.4-12.8,26.6-14.7c0.1,0,0.1,0,0.1-0.1
			C52.8,64.3,60,54.8,69.2,47.8c10.8-8.2,23.8-12.6,37.4-12.6c16.4,0,31.5,6.4,42.7,17c0.1,0.1,0.2,0.1,0.2,0c2-1.7,3.9-3.7,5.8-6.1
			c5.6-7.5,8.8-17.2,9.4-29.1c0.2-3.8,3.3-6.8,7-6.8l0,0l7.4-0.2c0.1,0,0.2,0.1,0.2,0.2c0.4,18.2-3.8,33.2-12.4,44.7
			c-2.6,3.5-5.4,6.3-8.1,8.6c-0.1,0.1-0.1,0.1,0,0.2c3.9,6,6.7,12.8,8.3,20c0,0.1,0.1,0.1,0.1,0.1c26.2,3.6,45.1,30.7,34.9,59.3
			c-0.3,0.8-0.6,1.5-0.9,2.2c-7.9,16.2-23.1,25.5-39.8,25.5h-10.4c-8,0-14.6-6.5-14.6-14.6v0c0,0,0,0,0,0h25
			c19.1-0.1,33.9-18.6,27.6-38.6c-3.8-12-15.3-19.8-27.8-19.8h0l-6.5,0.1c-0.1,0-0.2-0.1-0.2-0.1l-0.8-6.4
			c-0.8-7.1-3.2-13.7-6.8-19.5c-0.1-0.1-0.2-0.1-0.2-0.1c-6.5,4.1-12.1,7.8-16.6,16.1c-2.8,5.1-4.2,11.7-6.9,25
			c-1.4,6.8-2.1,12.1-2.8,16.8c-1.3,9.7-2.3,16.6-8.1,25.2c-6.3,9.2-13.7,14.6-22,16C89.7,171.1,89.4,171.2,84.8,171.2z M106.6,49.8
			c-20.9,0-39.6,14-45.5,34l-1.4,4.7c0,0.1-0.1,0.1-0.1,0.1L54.7,89c-17.4,1.4-31,16.2-31,33.7c0,16.8,12.5,31.2,29.2,33.5
			c2.1,0.3,4.6,0.3,4.6,0.3l0.2,0c5.3,0.2,27,0.3,30.5,0.2c0,0,0,0,0,0c4.1-0.9,8.1-4.1,11.9-9.7c3.9-5.7,4.5-10.2,5.7-19
			c0.6-4.7,1.4-10.4,2.9-17.8c3-14.6,4.6-22,8.4-29c5.7-10.5,12.9-15.8,19.6-20.2c0.1-0.1,0.1-0.2,0-0.3
			C128.6,53.9,118,49.8,106.6,49.8z"/>
	</g>
	<path class="st0" d="M172.2,39.1L172.2,39.1c0.7,1.3,2.6,4.5,6.4,6.4c3.2,1.6,6.1,1.5,8.1,1.2c9.7-1.3,15.4-7.2,15.4-7.2l0,0
		c0,0,4.1-3.7,9.7-6.4c5.6-2.7,7.8-2.1,7.8-2.1c0,0,0,0,0,0c-0.4-0.1-1-1-1.3-1.2c-0.7-0.7-1.4-1.3-2.2-1.9
		c-2.1-1.7-4.4-3.3-6.8-4.6c-7.3-4-15.7-5.2-23.8-3c-2.2,0.6-5.5,1.5-8.6,4.3c-1.5,1.3-5,4.4-5.4,9.4
		C171.3,36.2,171.8,38,172.2,39.1z"/>
</g>
<g>
	<path class="st1" d="M43.5,222.8c-1,0.6-2.2,1.1-3.6,1.4c-1.4,0.3-2.9,0.5-4.5,0.5c-4.4,0-7.7-1.1-10-3.2c-2.3-2.1-3.5-5.3-3.5-9.5
		v-11.2h-4.9V192h4.9v-8.7h11.7v8.7h7.6v8.7h-7.6v11.1c0,1.2,0.3,2.1,1,2.8c0.6,0.7,1.5,1,2.6,1c1.4,0,2.5-0.3,3.6-1L43.5,222.8z"/>
	<path class="st1" d="M63.1,191.4c1.9-0.8,4.1-1.1,6.6-1.1v10.5c-1.1-0.1-2-0.2-2.6-0.2c-2.5,0-4.5,0.7-5.9,2
		c-1.4,1.4-2.1,3.4-2.1,6.2v15.3H47.3v-33.4h11.2v4C59.7,193.3,61.2,192.1,63.1,191.4z"/>
	<path class="st1" d="M107.5,210.4H83.3c0.5,1.7,1.4,3,2.9,4c1.4,0.9,3.2,1.4,5.3,1.4c1.6,0,3-0.2,4.2-0.7c1.2-0.5,2.4-1.2,3.5-2.2
		l6.2,6.4c-3.2,3.6-8,5.4-14.2,5.4c-3.9,0-7.3-0.7-10.3-2.2c-3-1.5-5.2-3.5-6.9-6.2c-1.6-2.6-2.4-5.6-2.4-8.9c0-3.3,0.8-6.2,2.4-8.8
		c1.6-2.6,3.8-4.7,6.6-6.1c2.8-1.5,5.9-2.2,9.4-2.2c3.3,0,6.3,0.7,9.1,2.1c2.7,1.4,4.9,3.4,6.4,6c1.6,2.6,2.4,5.7,2.4,9.3
		C107.7,207.6,107.7,208.6,107.5,210.4z M85.4,200.1c-1.2,1-2,2.4-2.3,4.2h13.7c-0.3-1.8-1.1-3.2-2.3-4.2c-1.2-1-2.7-1.5-4.5-1.5
		C88.1,198.5,86.6,199.1,85.4,200.1z"/>
	<path class="st1" d="M112.5,178.5h11.7v45.7h-11.7V178.5z"/>
	<path class="st1" d="M131.2,178.5h11.7v45.7h-11.7V178.5z"/>
	<path class="st1" d="M150.5,185.3c-1.3-1.2-2-2.7-2-4.4c0-1.8,0.7-3.2,2-4.4c1.3-1.2,3-1.8,5.2-1.8c2.1,0,3.9,0.6,5.2,1.7
		c1.3,1.1,2,2.6,2,4.3c0,1.8-0.7,3.4-2,4.6c-1.3,1.2-3,1.8-5.2,1.8C153.6,187.1,151.9,186.5,150.5,185.3z M149.9,190.8h11.7v33.4
		h-11.7V190.8z"/>
	<path class="st1" d="M172.4,223.8c-2.7-0.6-4.9-1.5-6.5-2.5l3.5-8c1.5,0.9,3.3,1.7,5.4,2.2c2.1,0.6,4.2,0.8,6.2,0.8
		c1.9,0,3.2-0.2,4-0.6c0.8-0.4,1.2-1,1.2-1.7s-0.5-1.3-1.4-1.6c-1-0.3-2.5-0.6-4.6-0.9c-2.7-0.3-4.9-0.8-6.8-1.3
		c-1.9-0.5-3.5-1.5-4.8-3c-1.4-1.4-2-3.5-2-6c0-2.1,0.6-4,1.9-5.7c1.3-1.7,3.1-3,5.6-3.9c2.4-1,5.4-1.4,8.8-1.4
		c2.4,0,4.8,0.2,7.2,0.7c2.4,0.5,4.4,1.2,6,2.1l-3.5,7.9c-3-1.6-6.2-2.5-9.6-2.5c-1.8,0-3.2,0.2-4.1,0.6c-0.9,0.4-1.3,1-1.3,1.7
		c0,0.8,0.5,1.3,1.4,1.6c0.9,0.3,2.5,0.6,4.7,1c2.8,0.4,5,0.9,6.8,1.4c1.8,0.5,3.4,1.5,4.7,2.9c1.3,1.4,2,3.4,2,5.9
		c0,2.1-0.6,4-1.9,5.6c-1.3,1.7-3.2,3-5.6,3.9c-2.5,0.9-5.5,1.4-9,1.4C177.9,224.7,175.1,224.4,172.4,223.8z"/>
</g>
</svg>
