<?xml version="1.0" encoding="utf-8"?>
<!-- Generator: Adobe Illustrator 26.0.2, SVG Export Plug-In . SVG Version: 6.00 Build 0)  -->
<svg version="1.1" id="Layer_1" xmlns="http://www.w3.org/2000/svg" xmlns:xlink="http://www.w3.org/1999/xlink" x="0px" y="0px"
	 viewBox="0 0 920 920" style="enable-background:new 0 0 920 920;" xml:space="preserve">
<g>
	<path d="M455.1,542L455.1,542c-5,4.3-17.9,14.1-36.5,15.3c-15.5,1-27.2-4-35-8.4c-37.3-21.3-50.7-54.6-50.7-54.6l0,0
		c0,0-10.5-21.8-28.6-42c-18.1-20.2-28-21.5-28-21.5c0,0,0,0,0,0c1.6,0.2,5.5-2.2,7.1-2.8c4-1.5,8-2.9,12.1-4.1
		c11.5-3.5,23.4-6,35.4-7.3c36.2-4,72.4,5.2,101.4,27.5c8,6.1,19.6,15.3,27.8,31.6c3.8,7.6,13.1,26.2,6.5,47
		C463.7,531.6,458.6,538.1,455.1,542z"/>
	<g>
		<path d="M329.3,812c-9.5,0-23.1-0.1-42.9-0.2c-27.5-0.2-64.1-0.5-77.3-0.9c-2.8,0-15.6-0.2-28.2-1.9
			c-50.3-6.8-96.5-31.7-130.2-69.9C16.7,700.4-2,650.8-2,599.3c0-53.5,20-104.6,56.4-143.9c31.2-33.6,71.9-56,116.4-64.3
			c0.2,0,0.4-0.2,0.5-0.4c18.1-46.8,49.3-88.6,89.5-119.1c47.5-36,104.2-55.1,164-55.1c72,0,138.1,28.2,187,74.6
			c0.3,0.3,0.7,0.3,1,0c8.8-7.6,17.2-16.3,25.2-26.9c24.7-32.8,38.5-75.5,41.3-127.4c0.9-16.5,14.3-29.6,30.8-30l0,0l32.5-0.8
			c0.4,0,0.8,0.3,0.8,0.7c1.7,79.6-16.6,145.5-54.5,195.8c-11.4,15.2-23.4,27.4-35.5,37.7c-0.3,0.2-0.3,0.6-0.1,0.9
			c17,26.4,29.5,55.9,36.5,87.7c0.1,0.3,0.3,0.5,0.6,0.6c115,16,197.6,134.3,152.6,259.7c-1.2,3.3-2.6,6.6-4.1,9.8
			c-34.6,70.8-101.4,111.7-174.5,111.9h-45.7c-35.2,0-63.8-28.5-63.8-63.8v0c0,0,0,0,0,0h109.4c83.5-0.2,148.6-81.3,120.9-168.9
			c-16.6-52.5-66.9-86.9-121.9-86.8h0l-28.3,0.6c-0.4,0-0.7-0.3-0.8-0.7l-3.3-28.1c-3.7-31.2-14.2-60.1-29.9-85.4
			c-0.2-0.4-0.7-0.5-1.1-0.2c-28.4,17.9-52.9,34.3-72.7,70.4c-12.1,22.3-18.2,51.3-30.2,109.3c-6.2,29.9-9.4,53.1-12.2,73.5
			c-5.8,42.3-10,72.9-35.5,110.4c-27.5,40.3-59.9,63.9-96.4,69.9C351,811.7,349.5,812,329.3,812z M424.8,280.3
			c-91.5,0-173.4,61.2-199.2,148.8l-6,20.5c-0.1,0.3-0.3,0.5-0.7,0.5l-21.3,1.7C121.4,458,61.8,522.7,61.8,599.3
			c0,73.7,54.9,136.7,127.8,146.6c9.4,1.3,20.2,1.4,20.3,1.4l0.8,0c23.3,0.7,118.3,1.2,133.7,1c0.1,0,0.1,0,0.2,0
			c18-3.7,35.6-18.1,52.3-42.6c17.1-25.1,19.8-44.5,25.1-83.2c2.8-20.4,6.3-45.8,12.9-77.8c13.3-64.1,20-96.3,36.7-126.9
			c25-45.8,56.6-69.3,86-88.3c0.4-0.3,0.5-0.9,0.1-1.2C521.4,298.1,475,280.3,424.8,280.3z"/>
	</g>
	<path d="M712.4,233.5L712.4,233.5c3,5.9,11.2,19.8,28,28c14,6.8,26.7,6.6,35.6,5.4c42.6-5.6,67.6-31.4,67.6-31.4l0,0
		c0,0,17.9-16.2,42.4-28.1c24.4-11.8,34.1-9.3,34.1-9.3c0,0,0,0,0,0c-1.6-0.4-4.3-4.2-5.5-5.3c-3.1-2.9-6.3-5.7-9.6-8.4
		c-9.3-7.6-19.4-14.4-30-20.2c-32-17.4-69-22.6-104.2-12.9c-9.7,2.7-24,6.7-37.7,18.8c-6.4,5.6-22,19.3-23.8,41
		C708.4,220.7,710.6,228.6,712.4,233.5z"/>
</g>
</svg>
