<?xml version="1.0" encoding="utf-8"?>
<!-- Generator: Adobe Illustrator 26.0.2, SVG Export Plug-In . SVG Version: 6.00 Build 0)  -->
<svg version="1.1" id="Layer_1" xmlns="http://www.w3.org/2000/svg" xmlns:xlink="http://www.w3.org/1999/xlink" x="0px" y="0px"
	 viewBox="0 0 224.7 261.1" style="enable-background:new 0 0 224.7 261.1;" xml:space="preserve">
<style type="text/css">
	.st0{fill:url(#SVGID_1_);}
	.st1{fill:url(#SVGID_00000067232610031691256960000018219001290135168413_);}
	.st2{fill:url(#SVGID_00000001637433251792235320000011427438649774225835_);}
	.st3{fill:#004E92;}
</style>
<g>
	<linearGradient id="SVGID_1_" gradientUnits="userSpaceOnUse" x1="111.7394" y1="106.848" x2="80.0944" y2="72.6745">
		<stop  offset="0.2505" style="stop-color:#004E92"/>
		<stop  offset="0.7591" style="stop-color:#1F96FF"/>
	</linearGradient>
	<path class="st0" d="M111.5,104.5L111.5,104.5c-1.2,1-4.4,3.4-8.9,3.7c-3.8,0.2-6.6-1-8.5-2C85.1,101,81.8,93,81.8,93l0,0
		c0,0-2.6-5.2-7-10.1c-4.4-4.8-6.8-5.2-6.8-5.2c0,0,0,0,0,0c0.4,0.1,1.3-0.5,1.7-0.7c1-0.4,1.9-0.7,2.9-1c2.8-0.8,5.7-1.4,8.6-1.8
		c8.8-0.9,17.6,1.2,24.7,6.6c1.9,1.5,4.8,3.7,6.8,7.6c0.9,1.8,3.2,6.3,1.6,11.3C113.6,102,112.4,103.6,111.5,104.5z"/>
	<g>
		
			<linearGradient id="SVGID_00000092457074713667811020000009989453524398340540_" gradientUnits="userSpaceOnUse" x1="0.309" y1="84.5996" x2="209.0068" y2="84.5996">
			<stop  offset="9.133510e-02" style="stop-color:#002050"/>
			<stop  offset="0.3822" style="stop-color:#004E92"/>
			<stop  offset="0.7591" style="stop-color:#1F96FF"/>
		</linearGradient>
		<path style="fill:url(#SVGID_00000092457074713667811020000009989453524398340540_);" d="M80.9,169.2c-2.3,0-5.6,0-10.4,0
			c-6.7,0-15.6-0.1-18.8-0.2c-0.7,0-3.8-0.1-6.9-0.5c-12.2-1.6-23.5-7.6-31.7-16.8c-8.3-9.3-12.8-21.2-12.8-33.5
			c0-12.8,4.9-25.1,13.7-34.5c7.6-8.1,17.5-13.4,28.3-15.4c0.1,0,0.1-0.1,0.1-0.1C46.9,57,54.5,47,64.3,39.7
			c11.6-8.6,25.4-13.2,39.9-13.2c17.5,0,33.6,6.8,45.5,17.9c0.1,0.1,0.2,0.1,0.2,0c2.1-1.8,4.2-3.9,6.1-6.5c6-7.9,9.4-18.1,10-30.5
			c0.2-4,3.5-7.1,7.5-7.2v0l7.9-0.2c0.1,0,0.2,0.1,0.2,0.2c0.4,19.1-4,34.9-13.3,46.9c-2.8,3.6-5.7,6.6-8.6,9
			c-0.1,0.1-0.1,0.1,0,0.2c4.1,6.3,7.2,13.4,8.9,21c0,0.1,0.1,0.1,0.1,0.1c28,3.8,48.1,32.2,37.1,62.2c-0.3,0.8-0.6,1.6-1,2.4
			c-8.4,17-24.7,26.8-42.5,26.8h-11.1c-8.6,0-15.5-6.8-15.5-15.3v0c0,0,0,0,0,0h26.6c20.3-0.1,36.2-19.5,29.4-40.5
			c-4-12.6-16.3-20.8-29.7-20.8h0l-6.9,0.2c-0.1,0-0.2-0.1-0.2-0.2l-0.8-6.7c-0.9-7.5-3.5-14.4-7.3-20.5c-0.1-0.1-0.2-0.1-0.3-0.1
			c-6.9,4.3-12.9,8.2-17.7,16.9c-3,5.3-4.4,12.3-7.4,26.2c-1.5,7.2-2.3,12.7-3,17.6c-1.4,10.1-2.4,17.5-8.6,26.5
			c-6.7,9.7-14.6,15.3-23.5,16.8C86.2,169.1,85.9,169.2,80.9,169.2z M104.2,41.8c-22.3,0-42.2,14.7-48.5,35.7l-1.5,4.9
			c0,0.1-0.1,0.1-0.2,0.1l-5.2,0.4c-18.5,1.5-33.1,17-33.1,35.3c0,17.7,13.4,32.8,31.1,35.1c2.3,0.3,4.9,0.3,4.9,0.3l0.2,0
			c5.7,0.2,28.8,0.3,32.5,0.2c0,0,0,0,0,0c4.4-0.9,8.7-4.3,12.7-10.2c4.2-6,4.8-10.7,6.1-19.9c0.7-4.9,1.5-11,3.1-18.6
			c3.2-15.4,4.9-23.1,8.9-30.4c6.1-11,13.8-16.6,20.9-21.2c0.1-0.1,0.1-0.2,0-0.3C127.7,46,116.4,41.8,104.2,41.8z"/>
	</g>
	
		<linearGradient id="SVGID_00000166661225190413571220000012475605156762782095_" gradientUnits="userSpaceOnUse" x1="213.7204" y1="11.1393" x2="170.3767" y2="38.5162">
		<stop  offset="0.2505" style="stop-color:#004E92"/>
		<stop  offset="0.7591" style="stop-color:#1F96FF"/>
	</linearGradient>
	<path style="fill:url(#SVGID_00000166661225190413571220000012475605156762782095_);" d="M174.2,30.6L174.2,30.6
		c0.7,1.4,2.7,4.8,6.8,6.7c3.4,1.6,6.5,1.6,8.7,1.3c10.4-1.3,16.5-7.5,16.5-7.5l0,0c0,0,4.4-3.9,10.3-6.7c5.9-2.8,8.3-2.2,8.3-2.2
		c0,0,0,0,0,0c-0.4-0.1-1-1-1.3-1.3c-0.8-0.7-1.5-1.4-2.3-2c-2.3-1.8-4.7-3.5-7.3-4.8c-7.8-4.2-16.8-5.4-25.4-3.1
		c-2.4,0.6-5.8,1.6-9.2,4.5c-1.5,1.3-5.4,4.6-5.8,9.8C173.2,27.5,173.7,29.4,174.2,30.6z"/>
</g>
<path class="st3" d="M33.5,236.5c-1.1,0.7-2.5,1.2-4.2,1.6c-1.6,0.4-3.4,0.6-5.2,0.6c-5,0-8.9-1.2-11.6-3.6c-2.7-2.4-4.1-6-4.1-10.9
	v-12.7H2.9v-9.9h5.6v-9.9H22v9.9h8.8v9.9H22V224c0,1.4,0.4,2.4,1.1,3.2c0.7,0.8,1.7,1.2,3,1.2c1.6,0,2.9-0.4,4.1-1.2L33.5,236.5z"/>
<path class="st3" d="M56.2,200.7c2.2-0.9,4.7-1.3,7.6-1.3v12c-1.2-0.1-2.3-0.2-3.1-0.2c-2.9,0-5.2,0.8-6.8,2.3
	c-1.6,1.5-2.5,3.9-2.5,7.1V238H38v-38h12.9v4.6C52.2,202.9,54,201.6,56.2,200.7z"/>
<path class="st3" d="M108.4,222.4h-28c0.6,2,1.7,3.5,3.3,4.5c1.6,1,3.7,1.6,6.1,1.6c1.8,0,3.4-0.3,4.8-0.8c1.4-0.5,2.7-1.4,4.1-2.5
	l7.1,7.3c-3.7,4.1-9.2,6.2-16.4,6.2c-4.5,0-8.5-0.8-11.9-2.5c-3.4-1.7-6.1-4-7.9-7c-1.9-3-2.8-6.4-2.8-10.2c0-3.7,0.9-7.1,2.7-10
	c1.8-3,4.3-5.3,7.6-7c3.2-1.7,6.8-2.5,10.9-2.5c3.8,0,7.3,0.8,10.5,2.3c3.1,1.6,5.6,3.8,7.4,6.8c1.8,3,2.7,6.5,2.7,10.5
	C108.7,219.2,108.6,220.3,108.4,222.4z M82.9,210.6c-1.4,1.2-2.3,2.8-2.7,4.8H96c-0.4-2-1.3-3.6-2.7-4.8c-1.4-1.2-3.1-1.8-5.2-1.8
	C86,208.9,84.3,209.5,82.9,210.6z"/>
<path class="st3" d="M113.2,186.1h13.5v52h-13.5V186.1z"/>
<path class="st3" d="M134.7,186.1h13.5v52h-13.5V186.1z"/>
<path class="st3" d="M157.1,193.8c-1.5-1.4-2.3-3-2.3-5c0-2,0.8-3.7,2.3-5c1.5-1.4,3.5-2,6-2c2.5,0,4.5,0.6,6,1.9
	c1.5,1.3,2.3,2.9,2.3,4.9c0,2.1-0.8,3.8-2.3,5.2c-1.5,1.4-3.5,2.1-6,2.1C160.6,195.9,158.6,195.2,157.1,193.8z M156.3,200.1h13.5v38
	h-13.5V200.1z"/>
<path class="st3" d="M182.3,237.6c-3.1-0.7-5.6-1.7-7.5-2.8l4.1-9.1c1.8,1.1,3.8,1.9,6.3,2.6c2.4,0.6,4.8,0.9,7.2,0.9
	c2.2,0,3.7-0.2,4.7-0.7c0.9-0.4,1.4-1.1,1.4-1.9s-0.6-1.4-1.7-1.8c-1.1-0.4-2.9-0.7-5.3-1c-3.1-0.4-5.7-0.9-7.9-1.5
	c-2.2-0.6-4-1.7-5.6-3.4c-1.6-1.6-2.3-3.9-2.3-6.9c0-2.4,0.7-4.6,2.2-6.5c1.5-1.9,3.6-3.4,6.4-4.5c2.8-1.1,6.2-1.6,10.1-1.6
	c2.8,0,5.6,0.3,8.3,0.8c2.7,0.6,5,1.4,6.9,2.4l-4.1,9c-3.4-1.9-7.1-2.8-11.1-2.8c-2.1,0-3.7,0.2-4.7,0.7c-1,0.5-1.5,1.1-1.5,1.9
	c0,0.9,0.5,1.5,1.6,1.9c1.1,0.4,2.9,0.7,5.4,1.1c3.2,0.5,5.8,1,7.9,1.6c2.1,0.6,3.9,1.7,5.4,3.3c1.5,1.6,2.3,3.9,2.3,6.8
	c0,2.4-0.7,4.5-2.2,6.4c-1.5,1.9-3.6,3.4-6.5,4.4c-2.9,1.1-6.3,1.6-10.3,1.6C188.6,238.6,185.4,238.3,182.3,237.6z"/>
</svg>
