<?xml version="1.0" encoding="utf-8"?>
<!-- Generator: Adobe Illustrator 26.0.2, SVG Export Plug-In . SVG Version: 6.00 Build 0)  -->
<svg version="1.1" id="Layer_1" xmlns="http://www.w3.org/2000/svg" xmlns:xlink="http://www.w3.org/1999/xlink" x="0px" y="0px"
	 viewBox="0 0 24 24" style="enable-background:new 0 0 24 24;" xml:space="preserve">
<style type="text/css">
	.st0{fill-rule:evenodd;clip-rule:evenodd;fill:url(#Rectangle_00000165224821139775764010000014386655919605008573_);}
	.st1{fill-rule:evenodd;clip-rule:evenodd;fill:#FFFFFF;}
</style>
<desc>Created with Sketch.</desc>
<g id="Icon-Architecture_x2F_16_x2F_Arch_x5F_AWS-Secrets-Manager_x5F_16">
	<g id="Icon-Architecture-BG_x2F_16_x2F_Security-Identity-Compliance">
		
			<linearGradient id="Rectangle_00000031928792073099427800000009751063602715367582_" gradientUnits="userSpaceOnUse" x1="-561.569" y1="32.9044" x2="-560.5956" y2="31.931" gradientTransform="matrix(24 0 0 24 13478 -766)">
			<stop  offset="0" style="stop-color:#BD0816"/>
			<stop  offset="1" style="stop-color:#FF5252"/>
		</linearGradient>
		
			<path id="Rectangle" style="fill-rule:evenodd;clip-rule:evenodd;fill:url(#Rectangle_00000031928792073099427800000009751063602715367582_);" d="
			M11.4,0H23c0.5,0,1,0.5,1,1.1v11.6c0,6.3-5.1,11.4-11.4,11.4H1.1C0.5,24,0,23.5,0,22.9V11.4C0,5.1,5.1,0,11.4,0z"/>
	</g>
	<path id="AWS-Secrets-Manager_Icon_16_Squid" class="st1" d="M12,15.1h1c0.6,0,1.1-0.5,1.1-1.1l0,0c0-0.6-0.5-1.1-1.1-1.1h-1
		c-0.6,0-1.1,0.5-1.1,1.1l0,0C10.9,14.6,11.4,15.1,12,15.1z M11.5,12h2c-0.1-1.1-0.3-1.5-1-1.5C11.9,10.5,11.6,10.9,11.5,12L11.5,12
		z M14.6,12c0.3,0,0.5,0.2,0.5,0.5v2.1c0,0.9-0.7,1.6-1.6,1.6h-2c-0.9,0-1.6-0.7-1.6-1.6v-2.1c0-0.3,0.2-0.5,0.5-0.5h0.1
		c0-0.9,0.3-2.5,2-2.5S14.4,11,14.6,12L14.6,12z M7,16.4l0.8-0.6c-0.6-0.8-1-1.8-1-2.9H8v-1H6.8c0.1-1,0.4-2,1-2.8L7,8.5
		c-0.7,1-1.1,2.2-1.2,3.4H5v1h0.8C5.9,14.2,6.3,15.4,7,16.4L7,16.4z M15.8,17.1C15,17.7,14,18,13,18.1V17h-1v1.1c-1-0.1-2-0.4-2.8-1
		l-0.6,0.8c1,0.7,2.2,1.1,3.4,1.2V20h1v-0.8c1.2-0.1,2.4-0.5,3.4-1.2L15.8,17.1z M9.1,7.8C10,7.2,11,6.9,12,6.8V8h1V6.8
		c1,0.1,2,0.4,2.8,1L16.4,7c-1-0.7-2.2-1.1-3.4-1.2V5h-1v0.8C10.7,5.9,9.5,6.3,8.5,7L9.1,7.8z M19.1,12c-0.1-1.2-0.5-2.4-1.2-3.4
		l-0.8,0.6c0.6,0.8,1,1.8,1,2.8H17v1h1.1c-0.1,1-0.4,2-1,2.9l0.8,0.6c0.7-1,1.1-2.2,1.2-3.4H20v-1h-0.9V12z M16.8,8.9l2-2L18,6.2
		l-2,2L16.8,8.9z M8.2,16.1l-2,2l0.7,0.7l2-2L8.2,16.1z M10.5,9.8L6.4,5.7L5.6,6.4l4.1,4.1L10.5,9.8z M16.2,15.5l3.4,3.4l-0.7,0.7
		l-3.4-3.4L16.2,15.5z"/>
</g>
</svg>
