<?xml version="1.0" encoding="utf-8"?>
<!-- Generator: Adobe Illustrator 26.0.2, SVG Export Plug-In . SVG Version: 6.00 Build 0)  -->
<svg version="1.1" id="Layer_1" xmlns="http://www.w3.org/2000/svg" xmlns:xlink="http://www.w3.org/1999/xlink" x="0px" y="0px"
	 viewBox="0 0 24 24" style="enable-background:new 0 0 24 24;" xml:space="preserve">
<style type="text/css">
	.st0{fill-rule:evenodd;clip-rule:evenodd;fill:url(#Rectangle_00000096760517151124369710000009864429012162274467_);}
	.st1{fill-rule:evenodd;clip-rule:evenodd;fill:#FFFFFF;}
</style>
<desc>Created with Sketch.</desc>
<g id="Icon-Architecture_x2F_16_x2F_Arch_x5F_AWS-Fargate_x5F_16">
	<g id="Icon-Architecture-BG_x2F_16_x2F_Containers">
		
			<linearGradient id="Rectangle_00000105401684257855493890000005497806546241401486_" gradientUnits="userSpaceOnUse" x1="-561.4369" y1="32.7702" x2="-560.7298" y2="32.0631" gradientTransform="matrix(24 0 0 24 13478 -766)">
			<stop  offset="0" style="stop-color:#C8511B"/>
			<stop  offset="1" style="stop-color:#FF9900"/>
		</linearGradient>
		
			<path id="Rectangle" style="fill-rule:evenodd;clip-rule:evenodd;fill:url(#Rectangle_00000105401684257855493890000005497806546241401486_);" d="
			M12,0L12,0c6.6,0,12,5.4,12,12v0c0,6.6-5.4,12-12,12h0C5.4,24,0,18.6,0,12v0C0,5.4,5.4,0,12,0z"/>
	</g>
	<path id="AWS-Fargate_Icon_16_Squid" class="st1" d="M11.6,5l3.1,1.1l-3.1,1.1l-3.1-1L11.6,5z M15.3,11.3c-0.6,0.3-1.7,0.6-3.2,0.7
		V8.6V8.2l3.6-1.3v3.8C15.7,11,15.5,11.2,15.3,11.3L15.3,11.3z M7.5,10.7V6.9l3.6,1.3v0.4V12c-1.5-0.1-2.5-0.4-3.2-0.7
		C7.7,11.2,7.5,11,7.5,10.7L7.5,10.7z M7.5,12.2c0.8,0.4,2.1,0.8,4.1,0.8s3.3-0.4,4.1-0.8c0.6-0.3,1-0.9,1-1.5V6.2l0,0
		c0-0.2-0.1-0.4-0.3-0.5L11.8,4c-0.1,0-0.2,0-0.3,0L6.9,5.7C6.7,5.8,6.5,6,6.5,6.2l0,0v4.5C6.5,11.4,6.9,12,7.5,12.2L7.5,12.2z
		 M19.2,11.5c0,2-3.3,3.5-7.6,3.5S4,13.5,4,11.5c0-0.5,0.2-1.3,1.3-2l0.6,0.8C5.5,10.6,5,11,5,11.5c0,1.2,2.7,2.5,6.6,2.5
		s6.6-1.3,6.6-2.5c0-0.5-0.5-0.9-0.9-1.2l0.6-0.8C19,10.2,19.2,11,19.2,11.5L19.2,11.5z M13.6,18h1v-1h-1V18z M11.1,19h1v-1h-1V19z
		 M8.6,18h1v-1h-1V18z M15.1,16h-2c-0.3,0-0.5,0.2-0.5,0.5V17h-2v-0.5c0-0.3-0.2-0.5-0.5-0.5h-2c-0.3,0-0.5,0.2-0.5,0.5v2
		c0,0.3,0.2,0.5,0.5,0.5h2v0.5c0,0.3,0.2,0.5,0.5,0.5h2c0.3,0,0.5-0.2,0.5-0.5V19h2c0.3,0,0.5-0.2,0.5-0.5v-2
		C15.6,16.2,15.4,16,15.1,16L15.1,16z"/>
</g>
</svg>
