<?xml version="1.0" encoding="utf-8"?>
<!-- Generator: Adobe Illustrator 26.0.2, SVG Export Plug-In . SVG Version: 6.00 Build 0)  -->
<svg version="1.1" id="Layer_1" xmlns="http://www.w3.org/2000/svg" xmlns:xlink="http://www.w3.org/1999/xlink" x="0px" y="0px"
	 viewBox="0 0 24 24" style="enable-background:new 0 0 24 24;" xml:space="preserve">
<style type="text/css">
	.st0{fill-rule:evenodd;clip-rule:evenodd;fill:url(#Rectangle_00000026133608805130841620000010906436034181022143_);}
	.st1{fill-rule:evenodd;clip-rule:evenodd;fill:#FFFFFF;}
</style>
<desc>Created with Sketch.</desc>
<g id="Icon-Architecture_x2F_16_x2F_Arch_x5F_Amazon-CloudFront_x5F_16">
	<g id="Icon-Architecture-BG_x2F_16_x2F_Networking-Content-Delivery">
		
			<linearGradient id="Rectangle_00000122696670803984361820000000041205651052092547_" gradientUnits="userSpaceOnUse" x1="-280.7673" y1="392.066" x2="-279.816" y2="393.0173" gradientTransform="matrix(24 0 0 -24 6739 9433)">
			<stop  offset="0" style="stop-color:#4D27A8"/>
			<stop  offset="1" style="stop-color:#A166FF"/>
		</linearGradient>
		
			<path id="Rectangle" style="fill-rule:evenodd;clip-rule:evenodd;fill:url(#Rectangle_00000122696670803984361820000000041205651052092547_);" d="
			M2,0h20c1.1,0,2,0.9,2,2v20c0,1.1-0.9,2-2,2H2c-1.1,0-2-0.9-2-2V2C0,0.9,0.9,0,2,0z"/>
	</g>
	<path id="Amazon-CloudFront_Icon_16_Squid" class="st1" d="M16,15.5c0-0.3-0.2-0.5-0.5-0.5S15,15.2,15,15.5s0.2,0.5,0.5,0.5
		S16,15.8,16,15.5 M17,15.5c0,0.8-0.7,1.5-1.5,1.5S14,16.3,14,15.5c0-0.8,0.7-1.5,1.5-1.5S17,14.7,17,15.5 M9,11.5
		C9,11.2,8.8,11,8.5,11S8,11.2,8,11.5S8.2,12,8.5,12S9,11.8,9,11.5 M10,11.5c0,0.8-0.7,1.5-1.5,1.5S7,12.3,7,11.5
		C7,10.7,7.7,10,8.5,10S10,10.7,10,11.5 M12,7.5C12,7.8,12.2,8,12.5,8S13,7.8,13,7.5C13,7.2,12.8,7,12.5,7S12,7.2,12,7.5 M11,7.5
		C11,6.7,11.7,6,12.5,6S14,6.7,14,7.5S13.3,9,12.5,9S11,8.3,11,7.5 M19,12c0-2.3-1.1-4.4-2.9-5.7c-0.2-0.1-0.7,0.1-1.5,0.5
		c-0.2,0.1-0.3,0.1-0.4,0.2L13.9,6c0.1,0,0.2-0.1,0.3-0.1c0.2-0.1,0.4-0.2,0.6-0.3C13.9,5.2,13,5,12,5c-0.7,0-1.4,0.1-2,0.3
		c0,0-0.1,0-0.1,0.1c0.4,0.1,0.8,0.3,1.3,0.5l-0.4,0.9C9.5,6.2,8.8,6,8.5,6c-1.8,1.1-3.1,2.9-3.4,5c0.3,0,0.6-0.1,1-0.1l0,1
		c-0.4,0-0.8,0.1-1.1,0.1c0,0,0,0,0,0c0,2.3,1.1,4.4,3,5.7c-0.2-0.7-0.4-1.5-0.4-2.4c0-0.2,0-0.3,0-0.5c0-0.5,0-1,0.1-1.4l1,0.2
		c-0.1,0.3-0.1,0.8,0,1.2c0,0.2,0,0.4,0,0.5c0,0.9,0.2,2,0.7,3.1c1.2,0.5,2.6,0.7,3.9,0.5c0.1-0.2,0.2-0.4,0.4-0.6
		c0.2-0.3,0.4-0.6,0.5-0.9l1,0.3c-0.1,0.3-0.3,0.6-0.4,0.9c0.6-0.2,1.2-0.5,1.7-0.9C18,16.2,19,14.2,19,12 M20,12
		c0,2.5-1.1,4.8-3.1,6.3c-0.7,0.5-1.5,1-2.3,1.2C13.8,19.9,12.9,20,12,20c-1.3,0-2.6-0.3-3.8-0.9C5.6,17.7,4,15,4,12
		c0-0.2,0-0.3,0-0.5c0.2-3.3,2.5-6.2,5.7-7.2c2-0.6,4.3-0.4,6.2,0.7C18.4,6.4,20,9.1,20,12 M11.1,8.9l-0.7-0.8
		C9.9,8.6,9.8,8.9,9.5,9.2C9.5,9.4,9.4,9.5,9.3,9.6l0.8,0.5c0.1-0.2,0.2-0.3,0.3-0.4C10.6,9.4,10.7,9.3,11.1,8.9 M10.6,11.4
		l-0.3,0.9c1.1,0.4,2.1,1,3.1,1.9l0.7-0.7C13,12.5,11.9,11.8,10.6,11.4 M13.3,9.1l0.8-0.5c1,1.5,1.5,3.1,1.6,4.8l-1,0.1
		C14.6,11.8,14.1,10.4,13.3,9.1"/>
</g>
</svg>
