<?xml version="1.0" encoding="utf-8"?>
<!-- Generator: Adobe Illustrator 26.0.2, SVG Export Plug-In . SVG Version: 6.00 Build 0)  -->
<svg version="1.1" id="Layer_1" xmlns="http://www.w3.org/2000/svg" xmlns:xlink="http://www.w3.org/1999/xlink" x="0px" y="0px"
	 viewBox="0 0 24 24" style="enable-background:new 0 0 24 24;" xml:space="preserve">
<style type="text/css">
	.st0{fill-rule:evenodd;clip-rule:evenodd;fill:url(#Rectangle_00000099651973530332469640000014276798916291040431_);}
	.st1{fill-rule:evenodd;clip-rule:evenodd;fill:#FFFFFF;}
</style>
<desc>Created with Sketch.</desc>
<g id="Icon-Architecture_x2F_16_x2F_Arch_x5F_Amazon-DynamoDB_x5F_16">
	<g id="Icon-Architecture-BG_x2F_16_x2F_Database">
		
			<linearGradient id="Rectangle_00000022559909124576622660000000723075084542778263_" gradientUnits="userSpaceOnUse" x1="-561.4806" y1="32.9429" x2="-560.5571" y2="32.0194" gradientTransform="matrix(24 0 0 24 13478 -766)">
			<stop  offset="0" style="stop-color:#2E27AD"/>
			<stop  offset="1" style="stop-color:#527FFF"/>
		</linearGradient>
		
			<path id="Rectangle" style="fill-rule:evenodd;clip-rule:evenodd;fill:url(#Rectangle_00000022559909124576622660000000723075084542778263_);" d="
			M13.6,0h7.3C22.6,0,24,1.4,24,3.2v17.7c0,1.7-1.4,3.2-3.2,3.2H3.2C1.4,24,0,22.6,0,20.8v-7.2C0,6.1,6.1,0,13.6,0z"/>
	</g>
	<path id="Amazon-DynamoDB_Icon_16_Squid" class="st1" d="M14.4,13.1l1-3.4c0-0.2,0-0.3-0.1-0.4S15.1,9,14.9,9h-0.7l1-2h2.5L17,9.3
		c-0.1,0.2,0,0.3,0.1,0.5c0.1,0.1,0.2,0.2,0.4,0.2h0.6L14.4,13.1z M20,9.3C19.9,9.1,19.7,9,19.5,9h-1.3L19,6.6
		c0.1-0.2,0-0.3-0.1-0.5c-0.1-0.1-0.2-0.2-0.4-0.2H15c-0.2,0-0.4,0.1-0.5,0.3l-1.5,3c-0.1,0.2-0.1,0.3,0,0.5
		c0.1,0.1,0.3,0.2,0.4,0.2h0.8l-1.3,4.4c-0.1,0.2,0,0.4,0.2,0.6c0.1,0.1,0.2,0.1,0.3,0.1s0.2,0,0.3-0.1l6.1-5.1
		C20,9.7,20,9.5,20,9.3L20,9.3z M14.8,17.6c0,0.5-1.6,1.4-4.4,1.4S6,18.1,6,17.6v-1.1c1,0.6,2.7,0.9,4.4,0.9s3.4-0.3,4.4-0.9
		C14.8,16.5,14.8,17.6,14.8,17.6z M14.8,15.1c0,0.5-1.6,1.4-4.4,1.4S6,15.6,6,15.1c0-0.1,0.1-0.2,0.2-0.3c1,0.5,2.5,0.8,4.2,0.8H12
		v-1h-1.6c-1.7,0-3.2-0.3-4-0.8C6.2,13.6,6,13.4,6,13.3v-1.1c1,0.6,2.7,0.9,4.4,0.9c0.3,0,1.4-0.1,1.8-0.1v-0.5L12.1,12
		c-0.3,0-1.4,0.1-1.7,0.1c-2.9,0-4.4-0.9-4.4-1.4c0-0.1,0.1-0.2,0.2-0.3c0.8,0.4,2.3,0.7,6.1,0.8v-1c-3.1,0-5-0.3-5.9-0.8
		C6.2,9.2,6,9,6,8.9V7.8c1,0.6,2.7,0.9,4.4,0.9c0.1,0,2.1,0,2.1,0v-1c-0.1,0-2,0-2.1,0C7.6,7.7,6,6.8,6,6.4C6,5.9,7.6,5,10.4,5
		c1.3,0,2.6,0.2,3.4,0.6l0.4-0.9c-1-0.4-2.4-0.6-3.8-0.6C7.7,4,5,4.8,5,6.4v2.5c0,0,0.1,0.6,0.4,0.9C5.1,10.2,5,10.5,5,10.7v2.5
		c0,0.2,0.1,0.6,0.4,0.9c-0.3,0.4-0.4,0.8-0.4,1v2.5c0,1.6,2.7,2.4,5.4,2.4s5.4-0.8,5.4-2.4v-2.5H14.8z"/>
</g>
</svg>
