<?xml version="1.0" encoding="utf-8"?>
<!-- Generator: Adobe Illustrator 26.0.2, SVG Export Plug-In . SVG Version: 6.00 Build 0)  -->
<svg version="1.1" id="Layer_1" xmlns="http://www.w3.org/2000/svg" xmlns:xlink="http://www.w3.org/1999/xlink" x="0px" y="0px"
	 viewBox="0 0 24 24" style="enable-background:new 0 0 24 24;" xml:space="preserve">
<style type="text/css">
	.st0{fill-rule:evenodd;clip-rule:evenodd;fill:url(#Rectangle_00000141431526988139647220000011418067852786758540_);}
	.st1{fill-rule:evenodd;clip-rule:evenodd;fill:#FFFFFF;}
</style>
<desc>Created with Sketch.</desc>
<g id="Icon-Architecture_x2F_16_x2F_Arch_x5F_AWS-Lambda_x5F_16">
	<g id="Icon-Architecture-BG_x2F_16_x2F_Compute">
		
			<linearGradient id="Rectangle_00000018209563023218777020000015663813966242776731_" gradientUnits="userSpaceOnUse" x1="-280.7557" y1="392.0776" x2="-279.8276" y2="393.0057" gradientTransform="matrix(24 0 0 -24 6739 9433)">
			<stop  offset="0" style="stop-color:#C8511B"/>
			<stop  offset="1" style="stop-color:#FF9900"/>
		</linearGradient>
		
			<path id="Rectangle" style="fill-rule:evenodd;clip-rule:evenodd;fill:url(#Rectangle_00000018209563023218777020000015663813966242776731_);" d="
			M2.9,0h18.1C22.7,0,24,1.3,24,2.9v18.1c0,1.6-1.3,2.9-2.9,2.9H2.9C1.3,24,0,22.7,0,21.1V2.9C0,1.3,1.3,0,2.9,0z"/>
	</g>
	<path id="AWS-Lambda_Icon_16_Squid" class="st1" d="M8.4,19h-3l3.5-7.2l1.5,3L8.4,19z M9.3,10.4c-0.1-0.2-0.3-0.3-0.5-0.3h0
		c-0.2,0-0.4,0.1-0.5,0.3l-4.4,8.8c-0.1,0.2-0.1,0.3,0,0.5C4.2,19.9,4.3,20,4.5,20h4.2c0.2,0,0.4-0.1,0.5-0.3l2.3-4.7
		c0.1-0.1,0.1-0.3,0-0.4L9.3,10.4z M19,19h-3.2L10.2,7.3C10.1,7.1,9.9,7,9.7,7H7.6l0-2h4.2l5.6,11.7c0.1,0.2,0.3,0.3,0.5,0.3H19V19z
		 M19.5,16h-1.3L12.6,4.3C12.5,4.1,12.3,4,12.1,4h-5C6.8,4,6.6,4.2,6.6,4.5l0,3c0,0.1,0.1,0.3,0.2,0.4C6.8,7.9,7,8,7.1,8h2.3
		L15,19.7c0.1,0.2,0.3,0.3,0.5,0.3h4c0.3,0,0.5-0.2,0.5-0.5v-3C20,16.2,19.8,16,19.5,16L19.5,16z"/>
</g>
</svg>
