<?xml version="1.0" encoding="utf-8"?>
<!-- Generator: Adobe Illustrator 26.0.2, SVG Export Plug-In . SVG Version: 6.00 Build 0)  -->
<svg version="1.1" id="Layer_1" xmlns="http://www.w3.org/2000/svg" xmlns:xlink="http://www.w3.org/1999/xlink" x="0px" y="0px"
	 viewBox="0 0 24 24" style="enable-background:new 0 0 24 24;" xml:space="preserve">
<style type="text/css">
	.st0{fill-rule:evenodd;clip-rule:evenodd;fill:url(#Rectangle_00000177456042957711386620000001837034561432403635_);}
	.st1{fill-rule:evenodd;clip-rule:evenodd;fill:#FFFFFF;}
</style>
<desc>Created with Sketch.</desc>
<g id="Icon-Architecture_x2F_16_x2F_Arch_x5F_Amazon-CloudWatch_x5F_16">
	<g id="Icon-Architecture-BG_x2F_16_x2F_Management-Governance">
		
			<linearGradient id="Rectangle_00000096053423359353144220000012625319817127987624_" gradientUnits="userSpaceOnUse" x1="-561.4918" y1="32.942" x2="-560.5591" y2="32.0093" gradientTransform="matrix(24 0 0 24 13478 -766)">
			<stop  offset="0" style="stop-color:#B0084D"/>
			<stop  offset="1" style="stop-color:#FF4F8B"/>
		</linearGradient>
		
			<path id="Rectangle" style="fill-rule:evenodd;clip-rule:evenodd;fill:url(#Rectangle_00000096053423359353144220000012625319817127987624_);" d="
			M12.2,0h9.1C22.8,0,24,1.2,24,2.8v18.5c0,1.5-1.2,2.8-2.8,2.8H2.8C1.2,24,0,22.8,0,21.2v-9C0,5.5,5.5,0,12.2,0z"/>
	</g>
	<path id="Amazon-CloudWatch_Icon_16_Squid" class="st1" d="M18.9,18.5l-2-1.7c-0.1,0.1-0.3,0.3-0.4,0.4l2,1.8
		c0.1,0.1,0.3,0.1,0.4,0C19,18.8,19,18.6,18.9,18.5 M14,17.1c1.7,0,3-1.3,3-3s-1.3-3-3-3s-3,1.3-3,3S12.4,17.1,14,17.1 M19.7,19.6
		c-0.3,0.3-0.6,0.4-1,0.4c-0.3,0-0.6-0.1-0.9-0.3l-2.2-2c-0.5,0.2-1,0.3-1.6,0.3c-2.2,0-4-1.8-4-3.9c0-2.2,1.8-3.9,4-3.9
		s4,1.8,4,3.9c0,0.7-0.2,1.3-0.5,1.8l2,1.8C20.1,18.3,20.1,19.1,19.7,19.6 M6.5,14.1H9v1H6.5C5.3,15.1,4,14,4,12.2
		c0-1.4,0.8-2.5,2-2.9V9.2C6,7.6,7.1,6,8.6,5.4c1.7-0.7,3.5-0.4,4.8,0.9C13.7,6.6,14,7,14.3,7.5c0.3-0.2,0.7-0.3,1.1-0.3
		c0.9,0,1.9,0.6,2.1,2c1.3,0.3,2.5,1.3,2.5,3c0,0.4-0.1,0.7-0.2,1.1l-1-0.3c0.1-0.2,0.1-0.5,0.1-0.8c0-1.6-1.4-2.1-2-2.2
		c-0.1,0-0.3-0.1-0.3-0.2c-0.1-0.1-0.1-0.2-0.1-0.4c-0.1-1-0.7-1.4-1.2-1.4c-0.3,0-0.6,0.2-0.9,0.4c-0.1,0.1-0.3,0.2-0.5,0.2
		s-0.3-0.1-0.4-0.3c-0.2-0.6-0.5-1.1-0.9-1.5C12.2,6.5,10.9,5.5,9,6.3C7.9,6.7,7,8,7,9.2c0,0.1,0,0.3,0,0.4C7,9.7,7,9.9,6.9,10
		c-0.1,0.1-0.2,0.1-0.3,0.2C6,10.3,5,10.8,5,12.2C5,13.4,5.8,14.1,6.5,14.1"/>
</g>
</svg>
