<?xml version="1.0" encoding="utf-8"?>
<!-- Generator: Adobe Illustrator 26.0.2, SVG Export Plug-In . SVG Version: 6.00 Build 0)  -->
<svg version="1.1" id="Layer_1" xmlns="http://www.w3.org/2000/svg" xmlns:xlink="http://www.w3.org/1999/xlink" x="0px" y="0px"
	 viewBox="0 0 605.8 669" style="enable-background:new 0 0 605.8 669;" xml:space="preserve">
<style type="text/css">
	.st0{fill:url(#SVGID_1_);}
</style>
<g>
	
		<linearGradient id="SVGID_1_" gradientUnits="userSpaceOnUse" x1="222.9756" y1="113.453" x2="519.9955" y2="627.9066" gradientTransform="matrix(1 0 0 -1 0 672)">
		<stop  offset="0" style="stop-color:#125891"/>
		<stop  offset="1" style="stop-color:#1E90FF"/>
	</linearGradient>
	<path class="st0" d="M454.7,366.8c-30.3,0-59.5,8.9-84.5,25.8c-9,6.1-17.4,13.2-25,21.1c-3.7,3.9-7.3,8.1-10.6,12.4
		c-10.5,13.8-18.4,28.9-23.7,45l-82.8-82.8c14.7-20.6,23.4-45.7,23.4-72.8c0-17.5-3.6-34.2-10.1-49.4c1.3-0.6,2.5-1.3,3.5-2.4
		l96.7-96.7c18.4,20.7,45.2,33.9,75,33.9c55.4,0,100.5-45.1,100.5-100.5C517.2,45.1,472.2,0,416.7,0S316.2,45.1,316.2,100.5
		c0,16.9,4.2,32.7,11.6,46.7l-97.9,97.9c-22.6-33.4-60.9-55.3-104.1-55.3C56.4,189.8,0,246.2,0,315.6s56.4,125.8,125.8,125.8
		c33.6,0,64.1-13.3,86.7-34.9l92.4,92.4c-0.8,6.3-1.3,12.6-1.3,19c0,83.3,67.8,151.1,151.1,151.1s151.1-67.8,151.1-151.1
		S538,366.8,454.7,366.8L454.7,366.8z M378.8,166.9c0.3-1,0.6-2.1,0.6-3.2c0-19.2,15.6-34.8,34.8-34.8s34.8,15.6,34.8,34.8
		c0,2,0.6,3.8,1.5,5.4c-10.2,5-21.6,7.9-33.7,7.9C402.9,177.1,390,173.4,378.8,166.9L378.8,166.9z M398.9,89.8
		c0-8.4,6.9-15.3,15.3-15.3c8.4,0,15.3,6.9,15.3,15.3s-6.9,15.3-15.3,15.3C405.8,105.1,398.9,98.2,398.9,89.8z M416.7,23.9
		c42.2,0,76.6,34.4,76.6,76.6c0,20.6-8.2,39.3-21.5,53.1c-2.9-16.8-13-31-27-39.7c5.3-6.7,8.6-15,8.6-24.2
		c0-21.6-17.6-39.2-39.2-39.2c-21.6,0-39.2,17.6-39.2,39.2c0,9.2,3.3,17.5,8.6,24.2c-12.7,7.9-22.1,20.4-26,35.2
		c-0.7-0.9-1.4-1.8-2.1-2.8c-0.3-2.5-1.3-4.9-3.2-6.8c-0.7-0.7-1.5-1.1-2.3-1.5c-6.3-11.1-9.9-23.9-9.9-37.5
		C340.1,58.2,374.5,23.9,416.7,23.9L416.7,23.9z M23.9,315.5c0-56.2,45.7-101.9,101.9-101.9s101.9,45.7,101.9,101.9
		c0,23.3-7.9,44.7-21.1,61.9l0,0c-4.5-25.9-21.1-47.7-43.9-59.2c9.8-9.6,16-23,16-37.7c0-29.1-23.7-52.8-52.8-52.8
		s-52.8,23.7-52.8,52.8c0,14.8,6.2,28.2,16,37.7c-22.8,11.5-39.4,33.3-43.9,59.2C31.9,360.3,23.9,338.8,23.9,315.5L23.9,315.5z
		 M96.9,280.5c0-15.9,13-28.9,28.9-28.9s28.9,13,28.9,28.9s-13,28.9-28.9,28.9S96.9,296.4,96.9,280.5L96.9,280.5z M65.7,397.6
		c1.1-1.8,2-3.9,2-6.2c0-32.1,26.1-58.1,58.1-58.1s58.1,26.1,58.1,58.1c0,2.3,0.8,4.4,2,6.2c-16.9,12.4-37.6,19.8-60.1,19.8
		S82.6,410,65.7,397.6L65.7,397.6z M373.4,615.6c1.8-43.3,37.5-78,81.3-78c43.8,0,79.4,34.7,81.3,78c-22.1,18.4-50.4,29.5-81.3,29.5
		S395.5,634,373.4,615.6z M412.2,471.2c0-23.5,19.1-42.6,42.6-42.6s42.5,19.1,42.5,42.6s-19.1,42.6-42.5,42.6
		C431.2,513.8,412.2,494.7,412.2,471.2z M556.8,593.5c-8-31.8-30.4-58-60-70.9c14.9-12.2,24.4-30.7,24.4-51.4
		c0-36.6-29.8-66.4-66.4-66.4c-36.6,0-66.4,29.8-66.4,66.4c0,20.7,9.5,39.2,24.4,51.4c-29.6,12.9-52,39.1-60,70.9
		c-15.7-21.2-25.1-47.3-25.1-75.6c0-5.4,0.4-10.8,1.1-16.1c1.7-2.7,2.2-5.9,1.4-8.9c3.7-18.9,11.6-36.7,23.6-52.3
		c2.8-3.6,5.8-7.2,8.9-10.4c6.4-6.7,13.5-12.7,21.1-17.8c21-14.2,45.6-21.7,71.1-21.7c70.1,0,127.2,57.1,127.2,127.2
		C581.9,546.2,572.5,572.3,556.8,593.5L556.8,593.5z"/>
</g>
</svg>
