<?xml version="1.0" encoding="utf-8"?>
<!-- Generator: Adobe Illustrator 26.0.2, SVG Export Plug-In . SVG Version: 6.00 Build 0)  -->
<svg version="1.1" id="Layer_1" xmlns="http://www.w3.org/2000/svg" xmlns:xlink="http://www.w3.org/1999/xlink" x="0px" y="0px"
	 viewBox="0 0 700 700" style="enable-background:new 0 0 700 700;" xml:space="preserve">
<style type="text/css">
	.st0{fill:#1E90FF;}
</style>
<g>
	<path class="st0" d="M86,161.5c14.3,0,27.5-4.3,38.5-11.6l79.4,79.4c-29.8,34.4-48,79.1-48,128.1c0,45,15.1,87.3,42.3,121.4
		c1.5-47.9,25.3-92.8,64.6-120.8l0.7-0.5c-6.1-12.8-9.6-27-9.6-42.1c0-54,43.9-97.9,97.9-97.9s97.9,43.9,97.9,97.9
		c0,15.1-3.5,29.3-9.6,42.1l0.7,0.5c39.4,28,63.2,72.9,64.6,120.8c27.1-34.1,42.3-76.3,42.3-121.4c0-49-18.2-93.7-48-128.1
		l79.5-79.5c11.1,7.3,24.3,11.6,38.5,11.6c38.6,0,70-31.3,70-70c0-38.5-31.3-70-70-70c-38.5,0-70,31.5-70,70
		c0,14.3,4.3,27.5,11.7,38.6L480,209.5c-34.4-29.8-79.1-48-128.1-48c-49,0-93.7,18.2-128.1,48L144.4,130
		c7.3-11.1,11.6-24.3,11.6-38.5c0-38.5-31.3-70-70-70c-38.5,0-70,31.5-70,70C16.1,130.1,47.6,161.5,86,161.5L86,161.5z"/>
	<path class="st0" d="M617.8,553.3c-14.1,0-27.2,4.3-38.2,11.5L474,452.4c-7.5-29.3-25.3-54.6-49.3-71.7
		c-17.9,20-43.9,32.6-72.8,32.6c-28.9,0-54.8-12.6-72.8-32.6c-25.9,18.4-44.4,46.5-50.7,78.8L124.6,564.9
		c-11.1-7.3-24.3-11.7-38.5-11.7c-38.5,0-70,31.5-70,70c0,38.6,31.5,70,70,70c38.6,0,70-31.3,70-70c0-14.2-4.3-27.5-11.7-38.5
		l82.9-84.1c0.2,1.1,0.2,2.2,0.4,3.4c0.6,3.5,2.5,6.7,5.3,8.8c34.4,26.4,75.6,40.4,118.9,40.4s84.5-14,118.9-40.4
		c2.8-2.1,4.8-5.3,5.3-8.8c0.4-2.5,0.6-5,0.9-7.4l82.6,87.9c-7.5,11.1-11.8,24.4-11.8,38.8c0,38.6,31.5,70,70,70
		c38.6,0,70-31.3,70-70C687.8,584.8,656.4,553.3,617.8,553.3L617.8,553.3z"/>
	<path class="st0" d="M351.9,245.4c-38.5,0-70,31.3-70,70s31.5,70,70,70c38.6,0,70-31.3,70-70S390.5,245.4,351.9,245.4z"/>
</g>
</svg>
