<?xml version="1.0" encoding="utf-8"?>
<!-- Generator: Adobe Illustrator 26.0.2, SVG Export Plug-In . SVG Version: 6.00 Build 0)  -->
<svg version="1.1" id="Layer_1" xmlns="http://www.w3.org/2000/svg" xmlns:xlink="http://www.w3.org/1999/xlink" x="0px" y="0px"
	 viewBox="0 0 700 700" style="enable-background:new 0 0 700 700;" xml:space="preserve">
<style type="text/css">
	.st0{fill:url(#SVGID_1_);}
</style>
<g>
	<linearGradient id="SVGID_1_" gradientUnits="userSpaceOnUse" x1="245.1633" y1="573.5474" x2="542.1961" y2="59.0715">
		<stop  offset="0" style="stop-color:#125891"/>
		<stop  offset="1" style="stop-color:#1E90FF"/>
	</linearGradient>
	<path class="st0" d="M476.9,381.8c-30.3,0-59.5,8.9-84.5,25.8c-9,6.1-17.4,13.2-25,21.1c-3.7,3.9-7.3,8.1-10.6,12.4
		c-10.5,13.8-18.4,28.9-23.7,45l-82.8-82.8c14.7-20.6,23.4-45.7,23.4-72.8c0-17.5-3.6-34.2-10.1-49.4c1.3-0.6,2.5-1.3,3.5-2.4
		l96.7-96.7c18.4,20.7,45.2,33.9,75,33.9c55.4,0,100.5-45.1,100.5-100.5C539.4,60.1,494.4,15,438.9,15S338.4,60.1,338.4,115.5
		c0,16.9,4.2,32.7,11.6,46.7l-97.9,97.9c-22.6-33.4-60.9-55.3-104.1-55.3c-69.4,0-125.8,56.4-125.8,125.8
		c0,69.4,56.4,125.8,125.8,125.8c33.6,0,64.1-13.3,86.7-34.9l92.4,92.4c-0.8,6.3-1.3,12.6-1.3,19c0,83.3,67.8,151.1,151.1,151.1
		c83.3,0,151.1-67.8,151.1-151.1C628,449.6,560.2,381.8,476.9,381.8L476.9,381.8z M401,181.9c0.3-1,0.6-2.1,0.6-3.2
		c0-19.2,15.6-34.8,34.8-34.8c19.2,0,34.8,15.6,34.8,34.8c0,2,0.6,3.8,1.5,5.4c-10.2,5-21.6,7.9-33.7,7.9
		C425.1,192.1,412.2,188.4,401,181.9L401,181.9z M421.1,104.8c0-8.4,6.9-15.3,15.3-15.3c8.4,0,15.3,6.9,15.3,15.3
		s-6.9,15.3-15.3,15.3C428,120.1,421.1,113.2,421.1,104.8z M438.9,38.9c42.2,0,76.6,34.4,76.6,76.6c0,20.6-8.2,39.3-21.5,53.1
		c-2.9-16.8-13-31-27-39.7c5.3-6.7,8.6-15,8.6-24.2c0-21.6-17.6-39.2-39.2-39.2c-21.6,0-39.2,17.6-39.2,39.2
		c0,9.2,3.3,17.5,8.6,24.2c-12.7,7.9-22.1,20.4-26,35.2c-0.7-0.9-1.4-1.8-2.1-2.8c-0.3-2.5-1.3-4.9-3.2-6.8
		c-0.7-0.7-1.5-1.1-2.3-1.5c-6.3-11.1-9.9-23.9-9.9-37.5C362.3,73.2,396.7,38.9,438.9,38.9L438.9,38.9z M46.1,330.5
		c0-56.2,45.7-101.9,101.9-101.9s101.9,45.7,101.9,101.9c0,23.3-7.9,44.7-21.1,61.9c0,0,0,0,0,0c-4.5-25.9-21.1-47.7-43.9-59.2
		c9.8-9.6,16-23,16-37.7c0-29.1-23.7-52.8-52.8-52.8s-52.8,23.7-52.8,52.8c0,14.8,6.2,28.2,16,37.7c-22.8,11.5-39.4,33.3-43.9,59.2
		C54.1,375.3,46.1,353.8,46.1,330.5L46.1,330.5z M119.1,295.5c0-15.9,13-28.9,28.9-28.9s28.9,13,28.9,28.9c0,15.9-13,28.9-28.9,28.9
		C132.1,324.4,119.1,311.4,119.1,295.5L119.1,295.5z M87.9,412.6c1.1-1.8,2-3.9,2-6.2c0-32.1,26.1-58.1,58.1-58.1
		c32,0,58.1,26.1,58.1,58.1c0,2.3,0.8,4.4,2,6.2c-16.9,12.4-37.6,19.8-60.1,19.8C125.5,432.4,104.8,425,87.9,412.6L87.9,412.6z
		 M395.6,630.6c1.8-43.3,37.5-78,81.3-78s79.4,34.7,81.3,78c-22.1,18.4-50.4,29.5-81.3,29.5C446,660.1,417.7,649,395.6,630.6z
		 M434.4,486.2c0-23.5,19.1-42.6,42.6-42.6c23.5,0,42.5,19.1,42.5,42.6c0,23.5-19.1,42.6-42.5,42.6
		C453.4,528.8,434.4,509.7,434.4,486.2z M579,608.5c-8-31.8-30.4-58-60-70.9c14.9-12.2,24.4-30.7,24.4-51.4
		c0-36.6-29.8-66.4-66.4-66.4s-66.4,29.8-66.4,66.4c0,20.7,9.5,39.2,24.4,51.4c-29.6,12.9-52,39.1-60,70.9
		c-15.7-21.2-25.1-47.3-25.1-75.6c0-5.4,0.4-10.8,1.1-16.1c1.7-2.7,2.2-5.9,1.4-8.9c3.7-18.9,11.6-36.7,23.6-52.3
		c2.8-3.6,5.8-7.2,8.9-10.4c6.4-6.7,13.5-12.7,21.1-17.8c21-14.2,45.6-21.7,71.1-21.7c70.1,0,127.2,57.1,127.2,127.2
		C604.1,561.2,594.7,587.3,579,608.5L579,608.5z"/>
</g>
</svg>
