<svg xmlns="http://www.w3.org/2000/svg" xmlns:xlink="http://www.w3.org/1999/xlink" viewBox="0 0 68.73 76.81"><defs><style>.cls-1{fill-rule:evenodd;fill:url(#linear-gradient);}</style><linearGradient id="linear-gradient" x1="7.4" y1="66.53" x2="62.01" y2="11.91" gradientUnits="userSpaceOnUse"><stop offset="0" stop-color="#c8511b"/><stop offset="1" stop-color="#f90"/></linearGradient></defs><g id="Layer_2" data-name="Layer 2"><g id="Layer_1-2" data-name="Layer 1"><path id="Amazon-Elastic-Container-Registry_Icon_64_Squid" data-name="Amazon-Elastic-Container-Registry Icon 64 Squid" class="cls-1" d="M32.06,34.47A2.19,2.19,0,0,0,31,36.35V73.74L2.69,57.92V21.17L34.44,2.77l28.2,14ZM65.92,16.71a2.2,2.2,0,0,0-1.16-1.92L35.5.29a2.14,2.14,0,0,0-2.16,0L1.08,19A2.18,2.18,0,0,0,0,20.86V58.24a2.18,2.18,0,0,0,1.1,1.89L30.42,76.52a2.19,2.19,0,0,0,1.08.29,2.16,2.16,0,0,0,1.08-.29,2.19,2.19,0,0,0,1.09-1.88v-38L64.84,18.59a2.15,2.15,0,0,0,1.08-1.88ZM66,58,40.4,73.66v-14L53.74,51l.09-.61a3.69,3.69,0,0,0,0-.89l0-16.71L66,25.8Zm1.65-35a2.16,2.16,0,0,0-2.16,0L52.57,30.48a2.17,2.17,0,0,0-1.35,1.8l0,17.2L38.88,57.41a2.22,2.22,0,0,0-1.17,1.87V74.53a2.15,2.15,0,0,0,1.1,1.86,2.3,2.3,0,0,0,2.29,0L67.6,60.19a2.18,2.18,0,0,0,1.08-1.88l0-33.43A2.19,2.19,0,0,0,67.64,23Z"/></g></g></svg>