<svg xmlns="http://www.w3.org/2000/svg" xmlns:xlink="http://www.w3.org/1999/xlink" viewBox="0 0 67.53 75.48"><defs><style>.cls-1{fill-rule:evenodd;fill:url(#linear-gradient);}</style><linearGradient id="linear-gradient" x1="6.68" y1="64.17" x2="60.19" y2="10.65" gradientUnits="userSpaceOnUse"><stop offset="0" stop-color="#c8511b"/><stop offset="1" stop-color="#f90"/></linearGradient></defs><g id="Layer_2" data-name="Layer 2"><g id="Layer_1-2" data-name="Layer 1"><path id="Amazon-Elastic-Container-Service_Icon_64_Squid" data-name="Amazon-Elastic-Container-Service Icon 64 Squid" class="cls-1" d="M64.88,48,54.29,41.62V26.48a1.32,1.32,0,0,0-.66-1.14L38.4,16.45V3.64L64.88,19.29Zm2-30.58L37.75.18a1.33,1.33,0,0,0-2,1.14V17.21a1.33,1.33,0,0,0,.66,1.15l15.23,8.88V42.37a1.33,1.33,0,0,0,.65,1.14l13.24,7.94a1.32,1.32,0,0,0,1.33,0,1.31,1.31,0,0,0,.67-1.15V18.54a1.31,1.31,0,0,0-.65-1.14ZM33.69,72.65l-31-16.51V19.29L29.13,3.64V16.49L15.18,25.37a1.31,1.31,0,0,0-.61,1.11V49a1.32,1.32,0,0,0,.71,1.18l17.81,9.27a1.32,1.32,0,0,0,1.22,0l17.28-8.93,10.64,6.38ZM65.57,55.8,52.32,47.86a1.32,1.32,0,0,0-1.29,0l-17.32,9-16.5-8.58v-21l14-8.88a1.32,1.32,0,0,0,.61-1.12V1.32A1.32,1.32,0,0,0,31.11.17a1.34,1.34,0,0,0-1.33,0L.65,17.4A1.33,1.33,0,0,0,0,18.54v38.4a1.33,1.33,0,0,0,.7,1.17L33.08,75.32a1.27,1.27,0,0,0,.62.16,1.3,1.3,0,0,0,.64-.17L65.52,58.1A1.32,1.32,0,0,0,66.21,57a1.34,1.34,0,0,0-.64-1.16Z"/></g></g></svg>