<?xml version="1.0" encoding="utf-8"?>
<!-- Generator: Adobe Illustrator 26.0.2, SVG Export Plug-In . SVG Version: 6.00 Build 0)  -->
<svg version="1.1" id="Layer_1" xmlns="http://www.w3.org/2000/svg" xmlns:xlink="http://www.w3.org/1999/xlink" x="0px" y="0px"
	 viewBox="0 0 330.7 673.6" style="enable-background:new 0 0 330.7 673.6;" xml:space="preserve">
<style type="text/css">
	.st0{fill:#1E90FF;}
	.st1{fill:#FF084F;}
	.st2{fill:#FF2E3E;}
</style>
<g>
	<path class="st0" d="M242.6,432.5h11.6v36.1h-11.6V432.5z"/>
	<path class="st0" d="M242.6,482.3h11.6v36.1h-11.6V482.3z"/>
	<path class="st0" d="M244,581.2h11.6v36.1H244V581.2z"/>
	<path class="st0" d="M270,581.2h11.6v36.1H270V581.2z"/>
	<path class="st1" d="M255.5,240.4l5.8-1.4c37.5-7.2,46.2-13.7,49.1-18.1c2.9-4.3,4.3-10.1,2.9-15.2c-0.7-5.1-4.3-10.1-8.7-13
		c-5.1-3.6-11.6-2.9-16.6-2.2c-0.7-5.1-2.2-10.8-7.2-14.4c-9.4-6.5-21.7-3.6-28.2,5.8c-1.4,2.2-6.5,10.1,1.4,52.7L255.5,240.4z
		 M262.8,188.4c1.4-2.2,4.3-3.6,7.2-3.6c1.4,0,3.6,0.7,5.1,1.4c0.7,0.7,2.2,2.9,1.4,11.6l-0.7,10.8l8.7-4.3
		c4.3-2.2,11.6-3.6,13.7-2.2c2.2,1.4,2.9,3.6,3.6,5.8s0,4.3-1.4,6.5c-0.7,0.7-5.1,5.8-36.1,12.3
		C260.6,202.9,261.3,191.3,262.8,188.4L262.8,188.4z"/>
	<path class="st2" d="M301,155.9l5.1,2.9l2.9-5.1c20.9-32.5,22.4-42.6,20.9-48.4c-2.2-10.8-13-18.1-24.5-15.9
		c-5.8,1.4-10.1,6.5-13,10.8c-3.6-2.9-9.4-6.5-15.2-5.1c-10.8,2.2-18.1,13-15.9,24.5C262.8,123.4,264.9,132.1,301,155.9L301,155.9z
		 M280.1,107.6C280.8,107.6,280.8,107.6,280.1,107.6c2.2,0,4.3,0.7,9.4,6.5l7.2,7.9l2.9-9.4c1.4-4.3,5.1-10.8,7.9-11.6
		c5.1-0.7,9.4,2.2,10.1,6.5c0,1.4,0.7,7.9-16.6,34.7c-20.2-13.7-28.2-22.4-28.9-25.3C272.9,113.3,275.8,108.3,280.1,107.6
		L280.1,107.6z"/>
	<path class="st0" d="M169.6,382.6h11.6v36.1h-11.6V382.6z"/>
	<path class="st0" d="M144.4,382.6H156v36.1h-11.6V382.6z"/>
	<path class="st0" d="M169.6,432.5h11.6v36.1h-11.6V432.5z"/>
	<path class="st0" d="M218.7,432.5h11.6v36.1h-11.6V432.5z"/>
	<path class="st0" d="M218.7,482.3h11.6v36.1h-11.6V482.3z"/>
	<path class="st0" d="M144.4,432.5H156v36.1h-11.6V432.5z"/>
	<path class="st0" d="M169.6,482.3h11.6v36.1h-11.6V482.3z"/>
	<path class="st0" d="M144.4,482.3H156v36.1h-11.6V482.3z"/>
	<path class="st0" d="M169.6,532.1h11.6v36.1h-11.6V532.1z"/>
	<path class="st0" d="M144.4,532.1H156v36.1h-11.6V532.1z"/>
	<path class="st0" d="M169.6,581.9h11.6V618h-11.6V581.9z"/>
	<path class="st0" d="M144.4,581.9H156V618h-11.6V581.9z"/>
	<path class="st0" d="M96,432.5h11.6v36.1H96V432.5z"/>
	<path class="st0" d="M70.7,432.5h11.6v36.1H70.7V432.5z"/>
	<path class="st0" d="M96,482.3h11.6v36.1H96V482.3z"/>
	<path class="st0" d="M70.7,482.3h11.6v36.1H70.7V482.3z"/>
	<path class="st0" d="M70,581.2h11.6v36.1H70L70,581.2L70,581.2z"/>
	<path class="st0" d="M44.7,581.2h11.6v36.1H44.7V581.2z"/>
	<path class="st0" d="M96,581.2h11.6v36.1H96V581.2z"/>
	<path class="st0" d="M218.7,581.2h11.6v36.1h-11.6V581.2z"/>
	<path class="st0" d="M303.2,662.1V558.8h-26V410.1h-20.9v-54.9h-14.4v-36.1h-22.4v-22.4h-18.1v-20.2h-13.7v-26.7h-7.2V128.5h-10.8
		V0h-11.6v127.8h-10.8v121.3h-6.5v26.7h-13.7V296H109v22.4H86.6v36.1H70.7v54.9H49.8v148.7H22.4v103.2H0v12.3h330.7V662L303.2,662.1
		z M265.7,421.6v137.2h-10.8v-26.7h-12.3v26.7h-13v-26.7H218v26.7h-13V421.6H265.7z M152.3,260.6h23.8v15.2h-23.8V260.6z
		 M158.8,140.1h10.1V156h-10.1V140.1z M158.8,166.8h10.1v13.7h-10.1V166.8z M158.8,192.8h10.1v56.3h-10.1V192.8z M138.6,287.3h50.5
		v8.7h-50.5V287.3z M120.5,308.3h86.6v10.8h-86.6V308.3z M97.4,330.7h132.1v24.5h-12.2v-13.7h-11.6v13h-20.2v-13h-11.6v13h-20.2v-13
		h-11.6v13h-20.2v-13h-11.6v13h-13L97.4,330.7z M119.1,662.1h-11.6v-30.3H95.9v30.3H81.5v-30.3H69.3v30.3H55.6v-30.3H44v30.3H33.9
		v-91.7h85.2V662.1z M119.1,558.8h-10.8v-26H96.7v26H83v-26H71.4v26H61.3V421.6h58.5v137.2H119.1z M194.2,662.1h-13v-29.6h-11.6
		v29.6h-13.7v-29.6h-11.6v29.6h-13.7V382.6H119V410h-13v-26.7H94.4V410H82.3v-43.2h162.5v43.3h-12.3v-26.7h-11.6v26.7h-14.4v-27.4
		h-11.6v279.4H194.2z M290.9,662.1h-9.4v-30.3h-11.6v30.3h-14.4v-30.3h-11.6v30.3h-13.6v-30.3h-11.6v30.3h-13v-91.7h85.2
		L290.9,662.1L290.9,662.1z"/>
</g>
</svg>
