<?xml version="1.0" encoding="utf-8"?>
<!-- Generator: Adobe Illustrator 26.0.2, SVG Export Plug-In . SVG Version: 6.00 Build 0)  -->
<svg version="1.1" id="Layer_1" xmlns="http://www.w3.org/2000/svg" xmlns:xlink="http://www.w3.org/1999/xlink" x="0px" y="0px"
	 viewBox="0 0 700 700" style="enable-background:new 0 0 700 700;" xml:space="preserve">
<style type="text/css">
	.st0{fill:#1E90FF;}
	.st1{fill:#FF084F;}
	.st2{fill:#FF2E3E;}
</style>
<g>
	<path class="st0" d="M427.3,445.7h11.6v36.1h-11.6V445.7z"/>
	<path class="st0" d="M427.3,495.5h11.6v36.1h-11.6V495.5z"/>
	<path class="st0" d="M428.7,594.4h11.6v36.1h-11.6V594.4z"/>
	<path class="st0" d="M454.7,594.4h11.6v36.1h-11.6V594.4z"/>
	<path class="st1" d="M440.2,253.6l5.8-1.4c37.5-7.2,46.2-13.7,49.1-18.1c2.9-4.3,4.3-10.1,2.9-15.2c-0.7-5.1-4.3-10.1-8.7-13
		c-5.1-3.6-11.6-2.9-16.6-2.2c-0.7-5.1-2.2-10.8-7.2-14.4c-9.4-6.5-21.7-3.6-28.2,5.8c-1.4,2.2-6.5,10.1,1.4,52.7L440.2,253.6z
		 M447.5,201.6c1.4-2.2,4.3-3.6,7.2-3.6c1.4,0,3.6,0.7,5.1,1.4c0.7,0.7,2.2,2.9,1.4,11.6l-0.7,10.8l8.7-4.3
		c4.3-2.2,11.6-3.6,13.7-2.2c2.2,1.4,2.9,3.6,3.6,5.8c0.7,2.2,0,4.3-1.4,6.5c-0.7,0.7-5.1,5.8-36.1,12.3
		C445.3,216.1,446,204.5,447.5,201.6L447.5,201.6z"/>
	<path class="st2" d="M485.7,169.1l5.1,2.9l2.9-5.1c20.9-32.5,22.4-42.6,20.9-48.4c-2.2-10.8-13-18.1-24.5-15.9
		c-5.8,1.4-10.1,6.5-13,10.8c-3.6-2.9-9.4-6.5-15.2-5.1c-10.8,2.2-18.1,13-15.9,24.5C447.5,136.6,449.6,145.3,485.7,169.1
		L485.7,169.1z M464.8,120.8C465.5,120.8,465.5,120.8,464.8,120.8c2.2,0,4.3,0.7,9.4,6.5l7.2,7.9l2.9-9.4c1.4-4.3,5.1-10.8,7.9-11.6
		c5.1-0.7,9.4,2.2,10.1,6.5c0,1.4,0.7,7.9-16.6,34.7c-20.2-13.7-28.2-22.4-28.9-25.3C457.6,126.5,460.5,121.5,464.8,120.8
		L464.8,120.8z"/>
	<path class="st0" d="M354.3,395.8h11.6v36.1h-11.6V395.8z"/>
	<path class="st0" d="M329.1,395.8h11.6v36.1h-11.6V395.8z"/>
	<path class="st0" d="M354.3,445.7h11.6v36.1h-11.6V445.7z"/>
	<path class="st0" d="M403.4,445.7H415v36.1h-11.6V445.7z"/>
	<path class="st0" d="M403.4,495.5H415v36.1h-11.6V495.5z"/>
	<path class="st0" d="M329.1,445.7h11.6v36.1h-11.6V445.7z"/>
	<path class="st0" d="M354.3,495.5h11.6v36.1h-11.6V495.5z"/>
	<path class="st0" d="M329.1,495.5h11.6v36.1h-11.6V495.5z"/>
	<path class="st0" d="M354.3,545.3h11.6v36.1h-11.6V545.3z"/>
	<path class="st0" d="M329.1,545.3h11.6v36.1h-11.6V545.3z"/>
	<path class="st0" d="M354.3,595.1h11.6v36.1h-11.6V595.1z"/>
	<path class="st0" d="M329.1,595.1h11.6v36.1h-11.6V595.1z"/>
	<path class="st0" d="M280.7,445.7h11.6v36.1h-11.6V445.7z"/>
	<path class="st0" d="M255.4,445.7H267v36.1h-11.6V445.7z"/>
	<path class="st0" d="M280.7,495.5h11.6v36.1h-11.6V495.5z"/>
	<path class="st0" d="M255.4,495.5H267v36.1h-11.6V495.5z"/>
	<path class="st0" d="M254.7,594.4h11.6v36.1h-11.6V594.4z"/>
	<path class="st0" d="M229.4,594.4H241v36.1h-11.6V594.4z"/>
	<path class="st0" d="M280.7,594.4h11.6v36.1h-11.6V594.4z"/>
	<path class="st0" d="M403.4,594.4H415v36.1h-11.6V594.4z"/>
	<path class="st0" d="M487.9,675.3V572h-26l0-148.7H441v-54.9h-14.4v-36.1h-22.4v-22.4h-18.1v-20.2h-13.7V263h-7.2l0-121.3h-10.8
		V13.2h-11.6V141H332v121.3h-6.5V289h-13.7v20.2h-18.1v22.4h-22.4v36.1h-15.9v54.9h-20.9v148.7l-27.4,0v103.2h-22.4v12.3h330.7
		v-11.6L487.9,675.3z M450.4,434.8V572h-10.8v-26.7h-12.3V572h-13v-26.7h-11.6V572h-13V434.8H450.4z M337,273.8h23.8V289H337V273.8z
		 M343.5,153.3h10.1v15.9h-10.1V153.3z M343.5,180h10.1v13.7h-10.1V180z M343.5,206h10.1v56.3h-10.1V206z M323.3,300.5h50.5v8.7
		h-50.5V300.5z M305.2,321.5h86.6v10.8h-86.6V321.5z M282.1,343.9h132.1v24.5H402v-13.7h-11.6v13h-20.2v-13h-11.6v13h-20.2v-13
		h-11.6v13h-20.2v-13h-11.6v13h-13L282.1,343.9z M303.8,675.3h-11.6v-30.3h-11.6v30.3h-14.4v-30.3H254v30.3h-13.7v-30.3h-11.6v30.3
		h-10.1v-91.7h85.2L303.8,675.3z M303.8,572H293v-26h-11.6v26h-13.7v-26h-11.6v26H246V434.8h58.5V572H303.8z M378.9,675.3h-13v-29.6
		h-11.6v29.6h-13.7v-29.6h-11.6v29.6h-13.7V395.8h-11.6v27.4h-13v-26.7h-11.6v26.7H267V380h162.5v43.3h-12.3v-26.7h-11.6v26.7h-14.4
		v-27.4h-11.6v279.4H378.9z M475.6,675.3h-9.4v-30.3h-11.6v30.3h-14.4v-30.3h-11.6v30.3H415v-30.3h-11.6v30.3h-13l0-91.7h85.2V675.3
		z"/>
</g>
</svg>
