<?xml version="1.0" encoding="utf-8"?>
<!-- Generator: Adobe Illustrator 26.0.2, SVG Export Plug-In . SVG Version: 6.00 Build 0)  -->
<svg version="1.1" id="Layer_1" xmlns="http://www.w3.org/2000/svg" xmlns:xlink="http://www.w3.org/1999/xlink" x="0px" y="0px"
	 viewBox="0 0 496.5 587.5" style="enable-background:new 0 0 496.5 587.5;" xml:space="preserve">
<style type="text/css">
	.st0{fill:#FCFCFC;}
</style>
<g>
	<path class="st0" d="M209,130.5c0,25.5-20.7,46.1-46.1,46.1s-46.1-20.7-46.1-46.1c0-25.5,20.7-46.1,46.1-46.1S209,105,209,130.5"/>
	<path class="st0" d="M87.7,269.8H238c3,0,5.5-2.5,5.5-5.5V261c0-19-7.6-37.1-21-50.5s-31.6-20.9-50.5-21h-18.3
		c-19,0-37.1,7.6-50.5,21c-13.4,13.4-20.9,31.6-21,50.5v3.3C82.2,267.3,84.7,269.8,87.7,269.8L87.7,269.8z"/>
	<path class="st0" d="M402.6,0H93.9C69,0,45.1,9.9,27.5,27.5C9.9,45.1,0,69,0,93.9v399.8c0,24.9,9.9,48.8,27.5,66.4
		c17.6,17.6,41.5,27.5,66.4,27.5h308.8c24.9,0,48.8-9.9,66.4-27.5c17.6-17.6,27.5-41.5,27.5-66.4V93.9c0-24.9-9.9-48.8-27.5-66.4
		C451.4,9.9,427.5,0,402.6,0z M453.2,493.6L453.2,493.6c0,13.4-5.3,26.3-14.8,35.7c-9.5,9.5-22.3,14.8-35.7,14.8H93.9
		c-13.4,0-26.3-5.3-35.7-14.8c-9.5-9.5-14.8-22.3-14.8-35.7V93.9c0-13.4,5.3-26.3,14.8-35.7c9.5-9.5,22.3-14.8,35.7-14.8h308.8
		c13.4,0,26.3,5.3,35.7,14.8c9.5,9.5,14.8,22.3,14.8,35.7L453.2,493.6z"/>
	<path class="st0" d="M411.8,132.6H287.2c-7.7,0-14.9,4.1-18.8,10.8c-3.9,6.7-3.9,15,0,21.7c3.9,6.7,11,10.8,18.8,10.8h124.6
		c7.7,0,14.9-4.1,18.8-10.8c3.9-6.7,3.9-15,0-21.7C426.7,136.8,419.5,132.6,411.8,132.6z"/>
	<path class="st0" d="M411.8,219.3H287.2c-7.7,0-14.9,4.1-18.8,10.8c-3.9,6.7-3.9,15,0,21.7c3.9,6.7,11,10.8,18.8,10.8h124.6
		c7.7,0,14.9-4.1,18.8-10.8c3.9-6.7,3.9-15,0-21.7C426.7,223.4,419.5,219.3,411.8,219.3z"/>
	<path class="st0" d="M411.8,349.3H92.3c-7.7,0-14.9,4.1-18.8,10.8c-3.9,6.7-3.9,15,0,21.7c3.9,6.7,11,10.8,18.8,10.8h319.5
		c7.7,0,14.9-4.1,18.8-10.8c3.9-6.7,3.9-15,0-21.7C426.7,353.4,419.5,349.3,411.8,349.3z"/>
	<path class="st0" d="M411.8,435.9H92.3c-7.7,0-14.9,4.1-18.8,10.8c-3.9,6.7-3.9,15,0,21.7c3.9,6.7,11,10.8,18.8,10.8h319.5
		c7.7,0,14.9-4.1,18.8-10.8c3.9-6.7,3.9-15,0-21.7C426.7,440.1,419.5,435.9,411.8,435.9z"/>
</g>
</svg>
